<svg width="634" height="308" viewBox="0 0 634 308" fill="none" xmlns="http://www.w3.org/2000/svg">
<g clip-path="url(#clip0_852_8769)">
<path fill-rule="evenodd" clip-rule="evenodd" d="M217.975 210.043C217.206 207.932 218.329 205.827 218.951 203.785C221.164 196.704 223.579 189.622 226.997 183.018C228.292 180.809 226.162 178.099 223.694 178.722C219.469 179.314 215.112 178.843 210.88 178.582C209.332 174.578 205.201 172.917 201.95 170.611C198.26 168.309 194.671 165.664 190.834 163.646C190.62 161.739 188.307 161.266 186.893 162.63C183.008 160.214 178.349 160.663 174.185 159.08C171.02 153.966 170.783 148.588 169.945 143.655C169.58 141.504 169.968 139.429 168.498 137.512C163.561 130.569 144.053 127.559 136.861 131.673C132.989 129.259 132.896 133.631 132.281 136.33C131.597 137.68 131.227 139.209 131.342 140.82C127.183 149.505 117.669 153.431 109.148 156.612C108.079 155.583 106.551 155.713 105.534 156.564C98.1483 158.17 90.9803 160.992 84.7923 165.398C77.7621 167.453 72.8109 173.17 69.2307 179.3C68.8362 179.947 68.7432 180.605 68.8585 181.211C57.8488 197.346 52.5942 216.663 51.8562 236.174C44.7762 240.422 55.2213 278.586 57.6528 286.51C57.6553 286.509 57.6577 286.508 57.6602 286.506C59.2376 289.299 61.0287 297.266 64.9765 296.65C67.6846 299.712 72.0002 299.11 75.6751 299.345C75.0765 301.64 75.3707 304.267 76.083 306.535C76.9256 309.236 81.0604 309.327 81.6467 306.383C118.243 313.492 155.792 307.82 192.8 308.887C203.5 308.963 214.199 309.294 224.873 310.056C226.376 310.163 227.9 308.628 227.798 307.131C225.503 282.719 223.348 250.605 220.781 226.432C220.173 220.919 219.691 215.346 217.975 210.043Z" fill="white"/>
<path fill-rule="evenodd" clip-rule="evenodd" d="M132.884 133.18C132.989 132.894 133.417 132.932 133.425 133.253C133.594 140.117 131.885 148.505 126.391 153.141C123.571 155.521 119.843 156.61 116.419 157.862L116.033 158.004L109.984 160.257C108.38 160.855 106.649 161.774 105.232 160.93C106.379 163.773 107.341 166.695 108.738 169.435C110.476 172.846 112.578 175.967 115.151 178.805C125.342 190.051 141.472 193.481 155.946 190.186C163.399 188.489 170.652 185.273 175.737 179.408C179.602 174.95 181.822 168.967 182.345 163.065C182.192 163.09 182.032 163.089 181.867 163.052C180.036 162.653 178.187 161.672 176.576 160.709L176.42 160.616C174.87 159.683 173.254 158.613 172.141 157.163C171.036 155.723 169.876 151.026 169.876 151.026C169.56 149.261 169.264 145.744 169.315 143.96C169.319 143.791 170.066 143.692 170.146 143.867C170.836 145.382 171.06 148.71 171.593 150.287L171.7 150.602C172.269 152.248 172.757 154.253 173.937 155.584C176.152 158.083 179.494 159.141 182.476 160.395C182.691 157.57 187.203 157.636 187.146 160.582C187.143 160.742 187.136 160.901 187.13 161.06C187.486 161.256 187.828 161.479 188.148 161.695L188.46 161.907C189.642 162.711 190.832 163.474 192.091 164.156C194.526 165.476 197.105 166.522 199.6 167.721C202.125 168.933 204.486 170.377 206.691 172.106C207.727 172.918 208.72 173.782 209.661 174.701L209.917 174.953C210.813 175.845 211.979 176.843 212.49 178.016C212.603 178.275 213.167 178.877 213.473 178.897C218.214 179.208 222.946 179.646 227.658 180.304C228.878 180.475 229.36 181.103 228.909 182.12C227.36 185.614 221.293 199.565 219.68 203.31C219.868 206.06 219.614 209.299 219.784 212.05C220.032 216.065 220.357 220.079 220.747 224.083C222.142 238.406 224.257 252.659 226.168 266.919C227.124 274.056 227.996 281.203 228.856 288.352C229.291 291.964 229.66 295.581 229.944 299.209C230.062 300.72 230.169 302.233 230.264 303.747L230.345 305.089C230.458 306.778 230.716 308.392 229.671 309.842C229.197 310.499 228.114 310.87 227.491 310.123C226.707 309.183 226.416 308.482 226.341 307.248C226.284 306.303 226.27 305.354 226.227 304.409C226.134 302.359 226.017 300.311 225.88 298.264C225.607 294.171 225.295 290.08 224.933 285.994C223.666 271.667 221.259 257.448 219.657 243.157C218.849 235.952 218.275 228.734 217.972 221.489C217.82 217.871 217.765 214.254 217.8 210.633C217.814 209.28 217.878 207.934 217.971 206.591C215.57 212.042 213.047 217.442 210.409 222.769L209.784 224.031C208.112 227.398 206.395 230.778 204.386 233.952L204.041 234.493C203.227 235.783 202.115 237.816 200.63 238.223C199.596 238.506 198.333 238.307 197.273 238.286C196.221 238.266 195.167 238.262 194.116 238.219C192.937 238.172 191.812 238.017 190.672 237.71C190.482 237.659 190.303 237.603 190.14 237.533C188.992 239.411 187.041 240.842 185.046 241.676C183.449 242.344 181.774 242.801 180.097 243.225L179.505 243.374C177.706 243.822 175.649 244.034 174.635 245.771L174.4 246.173C173.646 247.454 172.922 248.579 171.674 249.497C170.331 250.486 168.74 251.107 167.154 251.591C165.531 252.087 163.87 252.466 162.222 252.872L161.773 252.984C160.685 253.256 159.587 253.506 158.505 253.802C158.044 253.928 157.574 254.058 157.122 254.214C156.592 254.396 156.206 254.68 155.788 254.99C155.412 256.303 153.806 257.016 152.485 256.924C151.791 256.876 151.169 256.641 150.602 256.296C149.614 257.137 148.526 257.891 147.518 258.67C146.107 259.761 144.691 260.845 143.267 261.918C140.33 264.132 137.371 266.315 134.382 268.456C129.075 272.256 123.653 275.882 118.139 279.373C115.84 280.829 113.525 282.283 111.188 283.701L111.438 283.794L111.932 283.981C113.102 284.417 114.405 285.123 114.632 286.487C114.811 287.569 114.207 288.314 113.138 288.447C111.868 288.603 110.88 287.706 110.09 286.85C109.741 286.472 109.35 286.122 109.016 285.733C108.879 285.574 108.775 285.391 108.682 285.199C106.376 286.558 104.045 287.871 101.676 289.1L101.084 289.405C95.2112 292.407 89.4953 295.697 83.5729 298.614C82.028 299.375 80.1444 300.198 78.181 300.76C78.702 302.779 78.6939 304.995 78.7071 307.045C78.7196 309.042 75.5454 309.032 75.6124 307.045L75.6447 306.085C75.7025 304.471 75.7969 302.795 76.1799 301.225C70.3951 302.184 64.6162 300.099 63.5402 299.473C62.3526 298.783 61.2746 297.678 60.3775 296.653C58.4577 294.459 57.1254 291.829 55.9434 289.184C53.4116 283.518 51.6178 277.461 50.3064 271.405C45.4715 249.074 47.5511 225.173 55.4029 203.767C57.3645 198.419 59.6805 193.188 62.3345 188.147L62.664 187.524C65.3124 182.539 68.2559 177.573 71.9948 173.33C75.8892 168.912 80.6933 165.475 85.9239 162.808C88.4765 161.506 91.1031 160.378 93.7877 159.378C94.2188 159.217 94.653 159.073 95.0881 158.936C97.8857 157.153 101.281 155.447 104.677 155.514C104.908 155.518 105.095 155.605 105.235 155.737C105.398 155.766 105.562 155.801 105.726 155.848C106.088 155.953 106.47 156.35 106.418 156.757L106.401 156.893C106.391 156.959 106.379 157.023 106.358 157.085C106.48 157.104 106.599 157.132 106.716 157.172C109.965 156.255 113.162 154.852 116.334 153.72L117.056 153.465C119.712 152.534 122.436 151.622 124.615 149.78C126.783 147.948 128.412 145.575 129.591 143.01C131.042 139.849 131.692 136.425 132.884 133.18ZM197.945 299.884C198.588 299.406 199.349 299.961 199.59 300.554C200.381 302.498 199.99 305.518 198.876 307.237C197.721 309.018 194.958 308.315 194.891 306.158C194.821 303.909 196.129 301.236 197.945 299.884ZM204.591 246.205C204.649 245.952 205.042 245.955 205.1 246.205C205.636 248.486 205.623 250.943 205.781 253.281L205.799 253.541C205.988 256.12 206.146 258.706 206.259 261.29C206.481 266.373 206.746 271.456 207.044 276.536C207.191 279.054 207.349 281.573 207.518 284.091C208.046 283.796 208.59 283.538 209.154 283.31C209.999 282.969 210.821 282.929 211.729 282.939C212.834 282.95 213.667 283.922 213.52 285.005C213.361 286.184 212.322 286.689 211.244 286.521C210.05 286.334 208.851 286.044 207.645 285.924C207.779 287.871 207.918 289.817 208.065 291.762C208.26 294.338 208.514 296.91 208.693 299.486C208.71 299.731 208.728 299.978 208.747 300.224C209.466 299.851 210.23 299.659 211.095 299.424L211.32 299.361C212.577 299 213.921 298.501 215.084 299.346C215.865 299.913 216.021 300.848 215.374 301.597C214.392 302.734 212.939 302.513 211.583 302.455L210.854 302.429C210.166 302.402 209.532 302.358 208.896 302.184C209.013 303.862 209.074 305.547 208.868 307.201C208.757 308.095 207.58 308.329 207.269 307.417C206.455 305.034 206.287 302.464 205.989 299.968C205.711 297.637 205.542 295.289 205.36 292.948L205.305 292.245C204.895 287.094 204.567 281.94 204.328 276.778C204.088 271.616 203.944 266.456 203.887 261.29C203.861 258.944 203.9 256.59 203.992 254.244L204.021 253.541C204.127 251.129 204.053 248.569 204.591 246.205ZM97.0559 300.265C97.0872 299.935 97.3513 299.526 97.7441 299.577C98.106 299.624 98.4789 299.601 98.837 299.661C99.3095 299.739 99.6898 300.018 100.129 300.194C100.844 300.48 101.622 300.627 102.355 300.861C103.73 301.3 104.48 302.747 103.91 304.098C103.311 305.519 101.807 305.842 100.506 305.245C99.4816 304.776 98.7177 304.024 98.0286 303.155L97.8333 302.907C97.5364 302.534 97.1993 302.117 97.0748 301.665C96.9536 301.224 97.0133 300.713 97.0559 300.265ZM163.863 293.585C165.576 293.344 167.039 293.929 168.624 294.481L168.753 294.526C170.366 295.082 172.719 295.468 173.546 297.118C174.044 298.114 173.657 299.436 172.483 299.73C170.625 300.196 168.958 298.838 167.421 297.923L167.34 297.876C165.857 297.007 164.325 296.276 163.378 294.778C163.125 294.378 163.345 293.658 163.863 293.585ZM104.074 157.399C103.388 157.552 102.702 157.688 102.016 157.819C99.409 159.216 96.8781 160.666 94.186 161.911C91.3296 163.232 88.4838 164.596 85.7706 166.194C80.2891 169.423 75.7704 173.621 72.0365 178.766C65.5867 187.654 60.789 197.904 57.3554 208.304C56.4732 210.976 55.6837 213.678 54.9853 216.402C56.2201 215.261 57.6821 214.559 59.3214 213.957C60.0162 213.703 60.881 214.134 61.2332 214.735C61.3915 215.005 61.4808 215.273 61.4644 215.589C61.428 216.289 60.9728 217.083 60.2215 217.222C58.4701 217.544 56.7671 218.173 55.0783 218.726C54.8223 218.81 54.6023 218.778 54.4266 218.679C52.75 225.779 51.7011 233.026 51.3297 240.316C51.0154 246.488 51.2093 252.708 51.893 258.871C52.4184 258.635 52.9323 258.414 53.5084 258.279C54.2555 258.106 54.9904 257.894 55.7192 257.655C57.8223 256.966 58.7816 260.437 56.632 260.966C55.832 261.163 55.0271 261.327 54.212 261.446C53.5015 261.551 52.8731 261.505 52.2033 261.395C52.715 265.241 53.4139 269.058 54.3042 272.821L54.5007 273.644C55.6571 278.45 57.005 283.301 58.9541 287.843C59.9102 290.071 61.1762 292.187 62.7392 294.045C63.5071 294.958 64.3594 295.741 65.2889 296.483C66.0627 297.101 68.693 298.44 71.8082 298.44C74.9233 298.44 75.7667 298.146 77.3383 297.605C80.4465 296.535 83.3976 294.827 86.3125 293.306L86.6139 293.15C87.9028 292.483 89.1869 291.807 90.4675 291.124C90.3057 289.819 90.5888 288.722 91.2692 287.517C92.0045 286.212 93.8267 286.862 93.9621 288.196L93.9665 288.247C93.987 288.548 94.0374 288.854 94.1001 289.16C102.663 284.47 111.045 279.452 119.293 274.222C124.606 270.854 129.862 267.385 135.042 263.814C137.632 262.029 140.198 260.212 142.74 258.359C144.071 257.389 145.396 256.411 146.715 255.424C147.265 255.013 147.803 254.581 148.354 254.168C148.22 254 148.09 253.833 147.964 253.668C145.907 250.976 144.573 247.768 143.909 244.458C143.507 242.461 143.314 240.388 143.255 238.352L143.229 237.467C143.188 235.975 143.178 234.414 143.452 232.969C143.078 233.174 142.696 233.376 142.315 233.592C140.948 234.366 139.579 235.139 138.209 235.908C135.464 237.447 132.711 238.969 129.923 240.429C124.944 243.037 119.915 245.518 114.751 247.742L112.238 248.825C107.877 250.701 103.48 252.542 98.9457 253.936C96.3882 254.723 93.8113 255.394 91.217 255.994L92.2661 257.223C92.9775 258.057 92.99 259.252 92.0809 259.953C91.1872 260.643 89.9881 260.356 89.3927 259.44L88.3073 257.771C88.0753 257.414 87.9437 257.08 87.869 256.728C86.674 256.978 85.4759 257.218 84.2745 257.45L82.0033 257.883C78.7603 258.509 75.6159 259.748 72.7171 261.334C71.7094 261.886 71.4286 260.814 72.4963 260.068C75.6183 257.886 79.26 256.651 83.0175 255.615L83.202 255.564C84.5805 255.187 85.9566 254.793 87.3297 254.386C87.1787 253.839 87.0916 253.273 87.109 252.648C87.1476 251.256 87.2707 249.859 87.3446 248.468C87.4998 245.549 87.6977 242.638 87.9297 239.724C88.0188 238.602 88.1187 237.476 88.2329 236.351C87.4966 235.956 86.8616 235.432 86.0406 235.175L85.902 235.134C85.024 234.898 85.3203 233.767 86.1002 233.67C86.8067 233.582 87.5098 233.622 88.2063 233.772C88.3142 233.795 88.4162 233.822 88.5136 233.851C88.6416 232.809 88.7836 231.77 88.9448 230.737C89.3714 228.007 89.6731 225.13 90.5609 222.507C90.6268 222.313 90.9153 222.243 91.0222 222.447C92.3138 224.904 92.3588 227.917 92.5043 230.653L92.5224 230.98C92.6939 233.964 92.7037 236.978 92.6484 239.967C92.5916 243.047 92.4861 246.119 92.3479 249.196C92.2923 250.436 92.2945 251.721 92.0833 252.906C99.7695 250.408 107.32 247.418 114.557 243.877C119.662 241.379 124.723 238.782 129.726 236.087C132.233 234.737 134.752 233.408 137.256 232.053C138.133 231.578 139.01 231.102 139.886 230.624L141.201 229.908C142.431 229.237 143.457 228.569 144.89 228.522C145.317 228.508 145.7 228.708 145.972 229.01C146.742 228.465 147.631 228.129 148.565 228.137C149.971 226.196 151.398 224.271 152.882 222.387L153.978 220.992C155.876 218.587 157.886 216.144 160.306 214.313C161.386 213.496 162.573 212.883 163.812 212.376C163.521 212.305 163.235 212.162 162.981 211.926C161.798 210.829 161.635 208.792 161.395 207.261C161.145 205.674 161.242 204.253 161.488 202.671C161.584 202.056 162.602 201.928 162.851 202.493C163.375 203.684 163.93 204.825 164.406 206.029L164.547 206.392C165.059 207.748 166.149 209.174 166.077 210.644C166.057 211.047 165.922 211.399 165.713 211.681C166.753 211.336 167.808 211.028 168.847 210.707C172.115 209.697 175.396 208.716 178.728 207.932C179.615 207.724 180.506 207.53 181.401 207.353C181.87 205.127 182.553 202.942 183.359 200.797C182.596 200.407 182.102 199.752 181.445 199.169C180.831 198.623 180.408 197.959 179.884 197.333C179.406 196.763 179.675 195.733 180.533 195.766L180.776 195.777C181.665 195.818 182.525 195.91 183.331 196.325L183.619 196.473C184.012 196.677 184.444 196.911 184.827 197.188C185.329 196.033 185.851 194.89 186.379 193.758L187.063 192.294C188.838 188.484 190.608 184.529 192.836 180.981C193.827 179.404 195.145 178.419 197.037 178.266C198.986 178.11 201.011 178.312 202.963 178.382C205.224 178.463 207.486 178.559 209.745 178.677C209.166 178.071 208.638 177.396 208.056 176.813C207.09 175.848 206.07 174.933 204.998 174.087C202.875 172.413 200.542 171.034 198.118 169.846C195.693 168.659 193.198 167.623 190.922 166.155C189.481 165.227 188.194 164.058 187.02 162.794C186.281 170.768 182.429 178.176 176.644 183.742C170.634 189.523 162.33 192.698 154.207 194.049C145.92 195.427 137.272 194.922 129.346 192.042C125.259 190.557 121.339 188.436 117.843 185.775C117.804 186.006 117.758 186.235 117.667 186.45C117.546 186.739 117.397 186.985 117.226 187.239L116.921 187.685C116.729 187.965 116.533 188.242 116.315 188.502C115.786 189.131 115.038 189.407 114.231 189.404C112.687 189.399 111.518 187.885 111.934 186.388C112.195 185.447 112.753 184.881 113.626 184.513C113.901 184.397 114.182 184.299 114.465 184.203L114.677 184.131C114.963 184.033 115.246 183.94 115.54 183.886C113.885 182.425 112.349 180.837 110.973 179.123C106.66 173.747 102.405 166.218 103.847 159.078C103.872 158.956 103.983 158.879 104.101 158.859C104.185 158.358 104.452 157.873 104.817 157.547C104.571 157.483 104.323 157.433 104.074 157.399ZM148.867 280.838C149.721 280.363 150.604 281.492 149.91 282.189L148.873 283.225C147.911 284.192 146.975 285.169 146.151 286.271L145.952 286.54C144.84 288.052 143.655 289.804 141.834 290.369C139.631 291.052 137.514 288.369 138.789 286.409C139.904 284.697 142.05 284.05 143.9 283.342C145.65 282.672 147.231 281.747 148.867 280.838ZM77.8005 272.934C78.3024 272.277 79.6111 272.623 79.2683 273.553C78.1546 276.572 77.7006 280.688 74.8878 282.694C73.9804 283.34 72.5549 283.043 71.8078 282.296C70.9589 281.447 70.9249 280.252 71.4104 279.217C72.0025 277.954 73.4589 277.038 74.4798 276.076L74.5714 275.988C75.6697 274.921 76.8576 274.168 77.8005 272.934ZM195.36 276.408C196.256 276.022 198.591 275.272 199.283 276.16C199.315 276.193 199.343 276.228 199.365 276.267C199.535 276.562 199.56 276.978 199.365 277.271C198.559 278.482 197.719 279.387 196.573 280.249L196.444 280.345C195.196 281.262 194.024 282.34 192.503 282.753C190.395 283.327 188.923 280.688 190.403 279.147C191.596 277.906 193.417 277.262 194.997 276.57L195.36 276.408ZM110.716 259.159C110.363 258.522 111.084 257.74 111.736 258.139C113.597 259.276 115.765 260.129 117.856 260.742C118.702 260.99 119.465 261.847 119.402 262.773L119.392 262.913C119.367 263.24 119.322 263.564 119.114 263.836C118.386 264.788 117.345 265.155 116.233 264.591C113.754 263.335 112.057 261.582 110.716 259.159ZM165.111 257.229C165.066 256.961 165.262 256.755 165.534 256.806C167.107 257.104 168.56 257.864 169.91 258.737C170.635 259.205 171.333 259.719 172.056 260.192C172.949 260.776 173.283 261.258 173.415 262.33C173.502 263.037 172.842 263.683 172.236 263.878C170.585 264.411 168.694 262.664 167.575 261.53L167.525 261.478C166.354 260.285 165.389 258.875 165.111 257.229ZM212.35 255.376C211.991 254.408 213.227 253.605 214.035 254.081C214.796 254.528 215.621 254.899 216.339 255.412C216.998 255.884 217.6 256.442 218.232 256.953L218.545 257.201C219.705 258.133 221.619 260.439 219.961 261.776C218.382 263.05 216.289 261.424 215.23 260.235L215.156 260.151C214.546 259.447 213.795 258.682 213.353 257.86C212.936 257.086 212.654 256.197 212.35 255.376ZM196.783 180.444C194.806 180.827 194 183.267 193.167 184.858C191.202 188.611 189.395 192.433 187.581 196.26C187.022 197.437 186.478 198.624 185.929 199.808C185.896 199.9 185.852 199.992 185.802 200.082C184.677 202.502 183.519 204.907 182.166 207.205C183.405 206.973 184.65 206.775 185.899 206.62C185.836 205.443 186.642 203.868 187.041 202.878L187.074 202.795C187.571 201.525 188.092 199.526 189.371 198.867C189.798 198.648 190.253 198.923 190.286 199.392C190.383 200.789 189.016 202.388 188.348 203.574C187.944 204.291 187.551 205.012 187.167 205.74C187.023 206.013 186.903 206.281 186.755 206.521C187.4 206.451 188.045 206.389 188.692 206.344L189.114 206.315C191.513 206.157 194.06 206.112 196.228 207.294C198.238 208.391 199.266 210.733 198.162 212.865C196.785 215.522 193.755 215.874 191.09 216.089C187.761 216.358 184.425 216.842 181.12 217.315C177.701 217.804 174.482 219.064 171.114 219.712C170.801 219.772 170.606 219.362 170.893 219.187C173.549 217.571 176.779 216.681 179.749 215.775L179.989 215.701C181.6 215.206 183.175 214.641 184.841 214.361C186.459 214.088 188.087 213.868 189.719 213.7L189.877 213.685C191.674 213.534 196.257 213.586 196.064 210.926C195.935 209.166 193.074 208.862 191.767 208.841C185.778 208.745 179.746 210.335 174.054 212.038L172.783 212.418C170.452 213.12 168.118 213.841 165.832 214.663C163.24 215.594 161.198 217.046 159.311 219.034C157.218 221.238 155.191 223.491 153.02 225.621C151.651 226.963 150.265 228.282 148.867 229.59C148.551 229.998 148.299 230.443 148.124 231.019C147.828 231.994 147.896 232.899 148.008 233.9C148.289 236.427 148.352 238.981 148.704 241.5C149.031 243.834 149.488 246.254 150.458 248.419C150.841 249.277 151.341 250.119 151.91 250.872L152.369 251.469C152.569 251.728 152.793 252.012 153.028 252.278C153.373 251.858 153.872 251.584 154.453 251.652C155.686 251.797 156.655 251.763 157.865 251.479C158.801 251.26 159.73 251.004 160.662 250.766C162.492 250.299 164.34 249.874 166.151 249.338L166.463 249.245C167.813 248.831 169.163 248.312 170.287 247.44C171.593 246.428 171.994 244.967 172.961 243.703C175.026 241.006 179.489 241.062 182.51 240.323C185.077 239.696 187.548 238.705 189.325 236.842L189.429 236.731C189.35 236.399 189.478 236.024 189.787 235.852L189.854 235.814C189.974 235.747 190.104 235.719 190.231 235.722C190.396 235.48 190.555 235.229 190.7 234.963C190.819 234.744 191.116 234.905 191.077 235.122C191.054 235.251 191.022 235.378 190.991 235.504C192.713 235.062 194.603 235.146 196.35 235.147L198.618 235.139C199.011 235.134 199.596 235.115 199.648 235.091L199.701 235.068C199.842 235.006 199.642 235.107 199.74 234.976C199.849 234.832 199.956 234.686 200.061 234.538C200.437 234.012 200.793 233.47 201.141 232.924C197.343 233.891 193.409 234.493 189.532 234.995C185.371 235.534 181.156 235.908 176.959 235.912C175.802 235.913 175.812 234.166 176.959 234.123C181.403 233.953 185.825 233.718 190.24 233.148C192.522 232.853 194.796 232.484 197.057 232.051C197.929 231.884 198.8 231.707 199.669 231.52L200.32 231.378C200.728 231.288 201.882 231.158 202.445 230.78C202.556 230.59 202.666 230.401 202.776 230.211C202.722 229.544 201.027 229.633 200.629 229.632C199.502 229.63 198.375 229.639 197.248 229.642C194.994 229.649 192.74 229.629 190.486 229.611C185.982 229.574 181.461 229.417 176.961 229.61C175.868 229.656 175.295 227.904 176.374 227.444C181.141 225.409 186.432 224.967 191.522 224.341C194.198 224.013 196.876 223.633 199.493 222.967L200.14 222.803C201.783 222.382 203.598 221.868 204.983 220.864C202.902 220.022 200.316 220.119 198.16 220L197.995 219.99C194.975 219.805 191.95 219.71 188.925 219.705C182.735 219.697 176.543 219.916 170.36 220.209C170.205 220.217 170.173 219.972 170.324 219.939C176.679 218.553 183.138 217.885 189.641 217.782C192.67 217.734 195.701 217.777 198.727 217.911L199.837 217.962C202.418 218.073 205.281 218.103 207.44 219.661C207.769 219.898 207.942 220.202 207.969 220.522C210.865 214.752 213.539 208.861 216.223 203.009C218.311 198.459 220.32 193.871 222.483 189.357L223.184 187.896C224.121 185.947 225.082 183.998 226.149 182.12C222.16 181.587 218.148 181.217 214.135 180.933C210.477 180.675 198.544 180.102 196.783 180.444ZM195.017 242.982C195.472 242.73 196.169 242.936 196.281 243.496C196.364 243.914 196.507 244.378 196.507 244.805C196.507 245.317 196.323 245.873 196.226 246.374C196.001 247.525 195.725 248.461 195.14 249.486C194.773 250.128 194.033 250.564 193.29 250.547C192.701 250.533 192.179 250.375 191.775 249.92C191.291 249.374 190.959 248.571 191.225 247.836C191.92 245.91 193.198 243.992 195.017 242.982ZM98.5247 241.061C99.5892 239.197 102.112 237.531 104.314 237.696C107.621 237.944 108.296 242.395 105.094 243.457C103.181 244.092 100.549 243.44 98.8746 242.395C98.4234 242.114 98.2579 241.528 98.5247 241.061ZM64.5436 234.693C64.3018 234.341 64.7014 233.94 65.0617 234.019C65.8607 234.194 66.7221 234.271 67.5047 234.509C68.3061 234.753 69.0819 235.157 69.8758 235.435C71.5389 236.017 73.3153 236.31 74.9248 237.013C75.5682 237.294 76.0742 238.226 76.0148 238.912L75.9996 239.073C75.964 239.414 75.9049 239.711 75.7143 240.023C75.2021 240.859 74.1872 241.291 73.2294 241.034C71.4525 240.557 69.7162 239.331 68.2012 238.312L67.9212 238.126C67.2593 237.69 66.5475 237.234 66.0141 236.673C65.4574 236.087 64.9998 235.356 64.5436 234.693ZM125.624 227.913C125.42 227.176 126.336 226.689 126.87 227.187C127.938 228.181 129.054 229.103 130.099 230.123L130.17 230.192C130.918 230.945 132.007 232.394 131.034 233.367C129.786 234.615 128.049 232.764 127.38 231.8C126.531 230.576 126.022 229.343 125.624 227.913ZM207.313 221.823C205.729 223.5 203.289 224.271 201.141 224.91C198.594 225.667 195.97 226.119 193.343 226.491C190.804 226.85 188.285 227.171 185.787 227.584C187.677 227.607 189.566 227.621 191.452 227.655C193.626 227.694 195.799 227.741 197.973 227.804C199.556 227.85 201.413 227.633 202.917 228.222C203.189 228.327 203.442 228.474 203.663 228.653C204.928 226.404 206.14 224.125 207.313 221.823ZM109.636 206.141C111.288 205.616 112.843 204.919 114.595 205.1C115.061 205.148 115.394 205.601 115.14 206.049C114.309 207.51 112.959 208.335 111.63 209.312L111.513 209.399C110.058 210.481 108.496 211.467 106.914 212.355C104.19 213.883 101.749 209.509 104.5 208.225C106.155 207.453 107.894 206.694 109.636 206.141ZM139.393 202.343C141.922 202.51 144.449 202.623 146.981 202.725C149.914 202.844 148.928 207.356 146.478 206.443C144.057 205.54 141.637 204.649 139.195 203.808C138.452 203.552 138.511 202.331 139.346 202.341L139.393 202.343ZM74.5365 194.316C75.1919 194.27 75.8529 194.413 76.5092 194.477L77.2076 194.545C78.6472 194.688 79.9971 194.864 81.37 195.45C83.9033 196.531 82.5427 200.603 79.9996 200.509C78.1199 200.44 76.5126 199.633 74.9254 198.694C73.5378 197.872 72.6872 196.845 71.7502 195.555C71.4398 195.128 71.8723 194.649 72.2949 194.606C73.0393 194.53 73.7918 194.368 74.5365 194.316ZM201.525 186.001C201.106 188.616 200.066 191.068 198.498 193.202C197.71 194.274 196.326 194.315 195.545 193.202C194.441 191.627 195.122 189.823 195.954 188.311L196.2 187.868C196.573 187.204 197.145 186.236 197.799 185.567L197.81 185.498C198.161 182.76 201.957 183.307 201.525 186.001ZM99.249 169.217C99.8794 168.649 101.04 168.819 101.245 169.743C101.531 171.037 101.706 172.495 101.518 173.808C101.417 174.52 101.378 175.32 101.098 175.983C100.797 176.696 100.218 177.245 99.6729 177.781C98.5839 178.852 96.2882 178.498 95.9965 176.811L95.9594 176.604C95.8127 175.805 95.625 174.952 95.8423 174.161C96.0063 173.564 96.3728 172.955 96.676 172.401L96.7399 172.284C97.3473 171.153 98.2941 170.076 99.249 169.217ZM187.859 171.969L188.087 171.972C189.847 172.006 193.064 172.435 193.081 174.609C193.085 175.121 192.705 175.652 192.197 175.77C191.145 176.014 190.465 175.392 189.715 174.764C189.102 174.251 188.388 173.841 187.646 173.546C186.844 173.227 186.896 171.968 187.859 171.969Z" fill="black"/>
<path fill-rule="evenodd" clip-rule="evenodd" d="M190.898 87.2478C189.99 80.0002 187.136 72.3052 184.135 65.5484C177.387 51.2626 161.939 49.2957 148.09 46.3503C134.424 44.361 119.953 42.5648 106.493 46.5338C98.9258 48.3872 95.9704 57.3977 97.1646 64.5084C97.8461 68.9392 99.8634 73.1328 101.583 77.2392C105.002 85.6723 107.172 94.7007 107.175 103.831C106.941 109.798 106.098 116.608 112.956 119.136C119.482 122.38 120.034 131.176 128.205 136.166C131.509 142.858 140.51 143.447 146.988 144.999C151.082 145.783 155.223 146.359 159.374 146.732C171.396 148.272 181.014 144.789 187.307 134.081C191.518 127.565 194.654 120.041 193.88 112.143C193.108 103.826 191.823 95.5532 190.898 87.2478Z" fill="white"/>
<path fill-rule="evenodd" clip-rule="evenodd" d="M148.194 28.9883C148.88 28.2107 149.937 28.4774 150.579 29.0923C150.996 29.2153 151.401 29.3984 151.783 29.6406C152.647 29.5297 153.553 29.5297 154.4 29.5608C154.606 29.4456 154.826 29.3431 155.066 29.255C156.779 28.6288 158.296 28.9469 159.547 29.7852C160.15 29.2151 160.91 28.8574 161.882 28.9114C162.75 28.9599 163.368 29.368 163.898 29.9056C164.426 29.1439 165.28 28.6005 166.344 28.5248C167.831 28.4191 169.261 29.0154 170.446 29.9386C171.136 29.1468 172.077 28.6917 173.126 28.6873C173.816 28.562 174.545 28.6115 175.203 28.8101C176.158 29.0986 176.997 29.6391 177.665 30.3406C178.722 29.3286 180.016 28.6005 181.508 28.7066C183.439 28.8461 185.039 30.2655 185.783 32.0125C187.09 32.5359 188.296 33.2824 189.304 34.3467C189.358 34.4028 189.41 34.4615 189.464 34.5205C190.007 34.7208 190.518 35.0049 190.969 35.379C192.395 36.566 192.713 38.2836 192.241 39.9668C192.307 40.2361 192.363 40.5102 192.415 40.784C193.751 40.9871 194.965 41.758 195.655 43.0132C196.599 44.7358 196.414 47.0062 195.391 48.6506C194.951 49.358 194.393 49.954 193.766 50.4752C194.475 52.0852 194.134 54.0064 192.991 55.3086C192.713 55.7576 192.371 56.1628 191.986 56.5295C192.411 58.1941 191.656 59.9115 190.148 60.8009L190.019 61.1236C189.998 61.1772 189.976 61.2305 189.953 61.2834C189.936 61.3519 189.916 61.4182 189.895 61.485C189.859 62.0757 189.665 62.6553 189.279 63.2014C188.488 64.3207 187.508 65.0505 186.989 66.3571L186.937 66.4943C186.713 67.1126 185.992 67.5489 185.377 67.358C188.79 74.3659 190.579 82.1635 191.808 89.8053C192.42 93.6177 192.893 97.4432 193.277 101.283L193.653 105.108C193.983 108.507 194.278 111.917 194.28 115.328C194.284 123.043 192.077 130.464 187.339 136.603C182.859 142.406 176.518 146.612 169.355 148.269C161.96 149.977 153.284 149.304 146.652 145.394C144.697 144.244 146.41 141.479 148.4 142.404C152.166 144.156 155.993 145.458 160.168 145.749C164.238 146.035 168.317 145.526 172.177 144.195C178.561 141.991 183.994 137.374 187.486 131.624C189.207 128.79 190.452 125.715 191.115 122.465C191.941 118.415 191.816 114.229 191.513 110.127L191.492 109.847C190.893 101.944 190.102 93.9918 188.825 86.1672C187.696 79.2479 185.959 72.4689 183.705 65.8398C182.822 65.0627 181.835 64.4197 180.778 63.9313C173.038 63.6081 165.284 63.7025 157.555 64.2364C150.962 64.6947 144.402 65.4701 137.892 66.6002L137.194 66.7226C135.753 66.9793 134.152 67.1261 132.794 67.7062C131.629 68.2054 131.157 69.1645 130.863 70.3436C130.124 73.3262 130.012 76.5905 129.887 79.649C129.764 82.6387 130.041 85.6534 129.801 88.6333C129.598 91.1266 128.959 93.6786 127.112 95.4821C126.145 96.4263 124.956 96.9426 123.84 97.6595C123.118 98.1222 122.812 98.5991 122.905 99.4555C123.106 101.33 124.616 103.691 122.92 105.296C122.621 105.577 122.105 105.614 121.811 105.296C121.111 104.535 120.145 103.955 119.315 103.341C118.968 103.087 119.256 102.592 119.65 102.768C120.169 103.001 120.698 103.275 121.238 103.515C120.044 102.531 118.346 102.049 116.931 101.763C116.219 101.621 115.47 101.579 114.729 101.646C114.181 101.907 113.62 102.15 113.06 102.387C112.348 102.685 111.628 102.957 110.904 103.214C108.391 105.262 107.192 108.592 107.715 111.849C108.002 113.647 108.831 115.602 110.395 116.652C112.248 117.895 114.729 117.361 116.731 118.284C118.605 119.147 119.746 120.892 120.6 122.698L120.956 123.45C121.749 125.114 122.563 126.734 123.647 128.249C124.899 130.004 126.434 131.579 128.108 132.933C128.92 133.588 129.785 134.177 130.68 134.713L130.924 134.858C131.83 135.389 132.478 135.895 132.54 137.019C132.559 137.41 132.312 137.767 131.994 137.97C130.623 138.839 129.26 137.753 128.12 136.994C126.889 136.177 125.712 135.257 124.623 134.254C122.553 132.35 120.761 130.089 119.384 127.635C118.334 125.766 117.737 123.136 116.077 121.687C115.064 120.804 113.633 120.797 112.367 120.635C111.19 120.483 110.077 120.239 109.03 119.659C104.769 117.293 103.565 111.565 104.576 107.139C104.747 106.392 104.987 105.665 105.283 104.966C103.697 105.23 101.916 103.591 102.559 101.936C102.608 101.812 102.664 101.695 102.718 101.574C101.673 100.887 100.849 99.8447 100.457 98.4816C100.256 97.777 100.227 97.0649 100.332 96.3774C99.8256 96.0375 99.4072 95.57 99.138 94.995C98.2962 94.6059 97.5498 94.0238 97.1044 93.1919C96.4877 92.0441 96.566 90.9871 97.0359 90.0353C96.9698 89.9157 96.9062 89.7933 96.845 89.6683C95.1197 88.5748 93.9157 86.6906 94.0527 84.601C94.0968 83.9086 94.2681 83.2846 94.5324 82.7221C94.5104 82.6512 94.4883 82.5775 94.4688 82.5066C93.0249 81.7725 91.8307 80.5665 91.4049 78.9565C90.9791 77.3365 91.4808 75.7216 92.4841 74.4787C91.0158 73.4048 90.1324 71.9049 90.6683 69.6365C90.8861 68.7143 91.3241 67.8748 91.9164 67.1677C91.9139 67.1459 91.909 67.1239 91.9041 67.1016L91.7667 66.9951C89.9541 65.5649 88.9121 63.7424 90.0247 61.5009C90.5239 60.4931 91.236 59.7906 92.073 59.3282L92.1146 59.196V59.196C91.515 57.9115 91.3119 56.485 91.7255 54.9851C92.0632 53.7497 92.8634 52.7659 93.8863 52.1128C93.8178 51.5596 93.8276 50.9702 93.9377 50.3313C94.1213 49.2526 94.6572 48.3105 95.4403 47.6426C95.4697 47.5004 95.5064 47.3612 95.548 47.2215C95.8123 46.3678 96.3066 45.4405 96.8792 44.7527C97.3515 44.1826 97.8801 43.9746 98.5262 43.9526C98.487 43.4268 98.514 42.8931 98.6216 42.3524C98.952 40.6839 100.014 39.1153 101.588 38.4033C102.234 38.1121 102.914 38.0267 103.57 38.0974C104.128 36.923 105.217 36.0717 106.555 35.8882C107.077 35.8148 107.561 35.8195 108.007 35.8858C108.259 35.7681 108.52 35.6631 108.795 35.5674C108.976 35.5038 109.159 35.4451 109.343 35.3866C109.962 34.6183 110.777 34.0039 111.729 33.6347C112.828 33.2065 113.946 33.2503 114.937 33.61L115.253 33.5439V33.5439C115.747 32.6876 116.535 32.0245 117.746 31.7235C119.122 31.3834 120.534 31.8581 121.615 32.7221C121.62 32.7221 121.625 32.7221 121.632 32.7194C122.198 31.4544 123.164 30.5735 124.787 30.6347C125.798 30.6739 126.71 31.1757 127.415 31.8902C127.807 31.841 128.198 31.7969 128.592 31.7531C129.008 31.266 129.471 30.8111 129.982 30.4025C130.819 29.7318 131.908 29.7859 132.525 30.7301C132.659 30.9357 132.784 31.1436 132.909 31.3516L133.474 31.3125V31.3125C134.14 30.4145 135.048 29.8077 136.291 29.759C137.432 29.7123 138.244 30.2704 138.863 31.0507C139.367 31.0384 139.874 31.0289 140.38 31.0213C140.97 30.3387 141.665 29.7367 142.458 29.2376C143.065 28.8559 143.961 28.9858 144.452 29.4948C144.785 29.8407 145.094 30.2019 145.382 30.5757C146.123 29.7448 147.124 29.1975 148.194 28.9883ZM112.177 106.686C113.319 106.035 114.856 106.74 115.962 107.293C117.311 107.966 118.649 108.981 119.474 110.253C120.597 111.986 117.957 113.385 116.775 111.831C116.048 110.875 115.468 109.911 114.587 109.074C113.782 108.306 112.615 107.792 112.152 106.779C112.135 106.745 112.14 106.705 112.177 106.686ZM112.98 64.6376L113.001 64.5765C113.326 63.6876 111.908 63.3044 111.586 64.186C111.097 65.5222 111.66 66.9749 112.98 67.5518C113.346 67.7118 113.764 67.6563 113.985 67.2885C114.17 66.979 114.084 66.4427 113.721 66.2844C112.979 65.9597 112.73 65.3865 112.98 64.6376V64.6376ZM100.759 62.1521C101.469 61.5257 100.428 60.4904 99.7211 61.1141C99.0618 61.696 98.5729 62.4863 98.6999 63.3953C98.8294 64.3216 99.528 64.9756 100.293 65.4378C101.103 65.9279 101.842 64.659 101.034 64.1702L100.943 64.1146C100.604 63.9039 100.207 63.6142 100.149 63.1998C100.088 62.7593 100.461 62.4156 100.759 62.1521ZM104.791 51.0995L104.841 51.0625C105.604 50.5183 104.871 49.2445 104.1 49.7948C103.393 50.2996 102.825 50.9553 102.766 51.8596C102.708 52.7385 103.155 53.5005 103.74 54.1188C104.391 54.8066 105.428 53.7672 104.778 53.0808C104.145 52.4119 104.022 51.682 104.791 51.0995V51.0995Z" fill="black"/>
<path fill-rule="evenodd" clip-rule="evenodd" d="M174.419 123.154C174.589 123.108 174.738 123.336 174.598 123.46C174.022 123.972 173.656 124.924 173.235 125.573C172.836 126.191 172.45 126.802 172.098 127.448C171.704 128.173 171.323 128.894 171.017 129.661L170.956 129.816V129.816C171.048 130.034 171.12 130.25 171.173 130.392L171.188 130.432C171.712 131.77 170.612 133.258 169.371 133.632C167.248 134.272 165.427 132.529 165.376 130.456C165.336 128.825 166.442 127.373 167.565 126.295C168.548 125.352 169.648 124.549 170.878 123.962C171.422 123.702 171.986 123.486 172.575 123.36C173.178 123.231 173.829 123.313 174.419 123.154ZM170.419 129.063C170.575 129.136 170.708 129.315 170.82 129.525C170.764 129.347 170.649 129.17 170.419 129.063ZM171.747 106.407C173.595 107.53 176.411 110.149 174.423 112.933C172.083 115.388 168.714 112.573 167.053 111.3C165.514 110.314 163.784 112.851 165.213 114.003C177.21 122.884 182.078 106.701 172.682 105.087C171.647 104.909 171.263 106.06 171.747 106.407ZM156.556 95.6228L156.883 95.5955C158.299 95.4707 159.733 95.2805 161.13 95.6008C163.006 96.0315 162.868 98.7606 161.13 99.2624C159.597 99.7046 157.899 99.5132 156.317 99.5284C156.068 99.5308 155.82 99.5372 155.571 99.5414C155.523 100.133 155.328 100.643 155.031 101.152C154.818 101.518 154.547 101.865 154.28 102.19C153.644 102.961 152.146 102.944 151.505 102.19C151.03 101.631 150.653 100.989 150.647 100.233C150.645 100.04 150.669 99.834 150.715 99.6319L149.852 99.647C147.739 99.6792 145.609 99.6649 143.534 99.3292C142.796 99.4819 142.192 98.1504 143.211 97.7518C145.98 96.6688 149.074 96.35 152.013 96.0248C153.523 95.8575 155.042 95.7422 156.556 95.6228ZM180.15 94.5037L180.226 94.4962C182.058 94.3086 184.078 93.9836 185.915 94.1706C188.657 94.4493 188.652 98.1552 185.915 98.4324C184.91 98.5342 183.851 98.4847 182.796 98.3874C183.335 99.532 182.695 100.899 181.395 101.074C180.187 101.236 178.934 100.062 179.331 98.8029L179.349 98.7473C179.427 98.5288 179.496 98.2846 179.578 98.0436L179.141 98.0067C177.834 97.8912 176.02 97.6552 175.539 96.6235C175.394 96.3125 175.428 96.0238 175.651 95.758C176.567 94.6677 178.826 94.6318 180.15 94.5037V94.5037ZM160.662 86.0188C161.988 85.537 163.366 86.6645 163.539 87.9351C163.737 89.3993 162.68 90.3633 161.342 90.5382L161.274 90.5463C158.319 90.8717 155.386 91.4668 152.427 91.8032C151.083 91.9558 149.729 92.0562 148.376 92.0923L147.409 92.1141C146.224 92.144 144.954 92.171 143.86 91.7631L143.864 91.7557V91.7557C143.573 91.6716 143.44 91.2527 143.763 91.0237C144.928 90.2003 146.498 89.8891 147.853 89.4978C149.216 89.1042 150.589 88.7413 151.966 88.4005C154.857 87.6855 157.861 87.0361 160.662 86.0188ZM172.895 86.361C173.246 84.5086 175.871 84.3099 176.835 85.6578C177.458 85.8717 178.371 86.0948 178.937 86.2627C179.924 86.5551 180.911 86.8458 181.9 87.1274C183.948 87.7107 185.947 88.4501 187.961 89.1394C188.168 89.2106 188.111 89.4739 187.912 89.5C185.101 89.8658 182.337 90.036 179.51 89.9187L178.93 89.8926C176.438 89.7955 172.208 89.9807 172.895 86.361Z" fill="black"/>
<path fill-rule="evenodd" clip-rule="evenodd" d="M176.929 133.797C174.65 131.767 172.095 127.685 168.821 130.915C168.012 131.827 167.684 133.873 166.445 134.274C164.801 134.807 163.171 133.068 162.611 131.732C160.318 124.309 169.797 122.273 175.196 123.472C177.835 124.555 179.778 128.915 179.895 131.191C179.971 132.72 178.676 134.969 176.929 133.797M194.123 122.356C194.101 122.257 194.07 122.168 194.032 122.087C193.024 121.706 192.227 122.095 191.734 122.82C191.75 123.001 191.804 123.184 191.838 123.362C191.458 124.163 191.114 125.155 190.599 125.847C190.497 125.855 190.392 125.844 190.29 125.815C181.747 126.707 185.918 117.769 177.252 115.549C170.553 114.444 158.446 115.71 155.286 122.681C152.794 133.816 140.122 126.057 135.961 120.266C131.522 114.996 128.651 108.556 125.883 102.307C125.298 100.984 123.473 101.93 123.672 103.199C121.113 108.33 121.198 114.493 120.565 120.115C119.487 131.33 118.437 147.057 128.859 153.905C142.438 169.25 176.345 174.666 192.007 160.566C197.428 148.912 196.76 134.694 194.123 122.356" fill="black"/>
</g>
<g clip-path="url(#clip1_852_8769)">
<path fill-rule="evenodd" clip-rule="evenodd" d="M397.864 302.381C398.262 294.986 398.75 287.596 399.335 280.213C400.499 265.507 402.024 250.789 404.562 236.252C407.065 221.908 410.569 207.961 415.616 194.293C417.958 187.951 420.494 182.542 424.173 176.841C427.652 171.452 432.091 167.8 437.621 164.546C442.604 161.615 448.393 156.529 453.172 153.246C455.167 151.876 459.272 151.968 460.64 149.94C462.432 147.286 461.27 143.223 463.077 140.577C465.141 137.552 468.033 135.202 471.295 133.495C474.854 131.08 479.047 129.987 483.251 130.137C489.45 129.761 495.694 131.738 499.673 136.792C501.659 139.315 502.819 142.225 502.98 145.448C503.021 146.286 502.753 146.947 502.31 147.424C502.572 147.775 502.834 148.127 503.093 148.48C503.907 147.273 505.81 146.631 507.078 147.542C511.226 150.525 515.71 152.897 520.442 154.636C521.549 154.111 522.889 154.354 523.837 155.211C524.222 155.558 524.631 155.855 525.057 156.108C526.812 156.584 528.594 156.982 530.402 157.29C530.968 157.386 531.447 157.708 531.811 158.142C532.35 157.637 533.09 157.395 533.917 157.711C543.467 161.358 552.486 167.023 559.341 174.698C566.936 183.201 570.925 193.779 573.961 204.615C577.249 216.346 579.35 228.369 581.114 240.412C582.902 252.615 584.663 264.865 585.893 277.138C586.586 284.045 586.85 291.014 586.536 297.951C586.38 301.418 586.064 304.874 585.56 308.308C585.443 309.111 585.32 310.036 585.123 310.96C585.724 310.843 586.44 311.352 586.318 312.167C585.469 317.842 578.62 319.495 573.896 320.148C566.169 321.217 558.402 321.81 550.601 321.856C542.935 321.9 535.27 321.407 527.62 320.966C519.776 320.514 511.933 320.059 504.09 319.598C472.667 317.753 441.241 315.927 409.817 314.081C406.946 313.912 403.668 313.684 401.209 312.016C397.838 309.729 397.665 306.095 397.864 302.381V302.381Z" fill="white"/>
<path fill-rule="evenodd" clip-rule="evenodd" d="M551.054 238.905C551.163 238.7 550.91 238.516 550.742 238.664C546.928 242.017 544.93 247.403 544.512 252.381C544.068 257.66 544.697 263.126 544.937 268.402C545.205 274.28 545.445 280.16 545.772 286.034C546.104 291.995 546.461 297.953 546.767 303.915L547.456 317.325V317.325C547.529 318.755 547.37 320.512 547.918 321.846C548.766 323.914 551.287 323.594 551.817 321.866L551.833 321.809L551.881 321.846C552.349 320.289 551.999 318.439 551.92 316.829L551.198 302.176V302.176C550.688 291.82 550.233 281.463 549.686 271.108L549.5 267.657C549.244 263.011 549.047 258.376 548.89 253.731L548.838 252.183C548.689 247.519 548.808 243.116 551.054 238.905ZM458.579 152.929C456.453 152.727 454.848 153.433 452.919 154.177C452.078 154.501 451.283 154.875 450.476 155.262C449.467 155.747 448.817 156.604 448.196 157.511L447.863 157.999C445.275 161.798 443.533 166.182 441.569 170.318C439.27 175.157 436.949 179.985 434.7 184.846L433.59 187.242C433.035 188.439 432.481 189.638 431.936 190.84L430.995 192.932C430.049 195.054 429.2 197.299 430.549 199.488C431.803 201.524 434.026 203.099 435.786 204.673C437.254 205.986 438.722 207.299 440.192 208.611C437.155 211.657 435.116 215.493 433.918 219.606C432.216 218.896 430.138 218.759 428.378 218.452C425.913 218.022 425.612 221.758 427.937 221.713C429.654 221.679 431.669 221.855 433.431 221.492C433.125 222.844 432.903 224.216 432.762 225.592C432.021 232.803 433.639 240.056 435.326 247.033L435.465 247.605C437.297 255.157 439.035 262.728 440.589 270.342C442.147 277.973 443.548 285.636 444.792 293.324C446.058 301.149 446.954 309.017 447.916 316.884C448.062 318.075 448.81 319.095 450.123 319.095C451.218 319.095 452.468 318.072 452.331 316.884C451.337 308.317 449.928 299.796 448.528 291.287C446.117 276.635 443.083 262.111 439.592 247.681L438.982 245.168C437.411 238.651 435.986 231.936 436.774 225.214C437.416 219.74 439.701 213.904 444.216 210.504L444.354 210.402C445.408 209.627 445.814 208.145 444.775 207.124C444.114 206.475 443.452 205.826 442.79 205.178L438.815 201.291L438.014 200.505C437.346 199.852 436.674 199.202 435.983 198.573C435.564 198.192 434.429 197.466 434.346 196.839C434.293 196.43 434.776 195.712 434.972 195.336L435.869 193.522V193.522C436.378 192.487 436.872 191.445 437.369 190.405C438.4 188.25 439.446 186.101 440.455 183.935L446.513 170.93V170.93C448.223 167.261 449.745 163.388 451.98 159.996L452.42 159.335C452.788 158.778 453.113 158.242 453.346 157.561C453.569 156.906 453.849 156.187 454.263 155.628C455.23 154.316 457.08 153.572 458.628 153.297C458.852 153.257 458.771 152.948 458.579 152.929ZM505.177 149.514C505.043 149.514 505.022 149.706 505.146 149.744C507.014 150.306 508.798 151.214 510.254 152.524C510.951 153.151 511.652 153.862 512.082 154.706C512.246 155.029 512.337 155.37 512.404 155.724L512.426 155.842C512.536 156.481 512.695 156.837 513.019 157.349L513.075 157.436C514.925 160.298 516.222 163.477 517.407 166.66L519.989 173.6V173.6L522.569 180.542C523.401 182.778 524.233 185.015 525.064 187.252C525.524 188.486 525.996 189.716 526.468 190.946C526.672 191.478 526.892 192.007 527.079 192.547C527.104 192.62 527.186 193.064 527.247 193.172L527.227 193.209V193.209C526.706 194.086 525.318 194.818 524.532 195.455L521.823 197.649V197.649C519.891 199.214 517.91 200.734 516.037 202.369C514.86 203.395 515.592 205.233 516.904 205.661C519.104 206.379 521.258 207.238 523.425 208.05C524.3 208.378 525.211 208.663 526.076 209.025L526.602 209.253C526.808 209.345 526.709 209.344 526.701 209.725C526.693 210.123 526.58 210.539 526.515 210.931C525.785 215.35 525.012 219.762 524.195 224.167C521.308 239.742 517.858 255.203 513.923 270.546C511.935 278.293 509.804 286.003 507.773 293.74C505.747 301.456 503.081 309.061 500.535 316.618C499.817 318.749 503.19 319.666 503.891 317.544C506.825 308.656 509.508 299.691 512.28 290.753C517.204 274.871 521.084 258.645 524.516 242.379C526.217 234.317 527.773 226.225 529.182 218.107C529.449 216.57 529.71 215.032 529.967 213.493L530.34 211.23C530.596 209.617 530.742 207.936 529.49 206.66C528.268 205.414 526.169 204.972 524.561 204.388L524.444 204.345C523.421 203.962 522.39 203.593 521.363 203.213C522.876 202.02 524.37 200.801 525.879 199.609C527.096 198.647 528.332 197.705 529.532 196.721C530.521 195.91 531.328 194.868 531.431 193.548C531.536 192.199 530.959 190.948 530.494 189.711L530.449 189.591C529.992 188.356 529.534 187.122 529.065 185.891L526.157 178.275V178.275C524.31 173.436 522.54 168.557 520.597 163.755C519.828 161.854 518.991 159.984 518.001 158.188C517.523 157.322 517.011 156.474 516.455 155.656C515.832 154.739 515.266 154.292 514.3 153.787C512.756 152.978 511.544 151.622 509.993 150.788C508.471 149.969 506.905 149.533 505.177 149.514ZM500.164 140.879C500.105 140.778 499.948 140.823 499.946 140.939C499.906 143.344 500.477 145.802 500.828 148.18C501.18 150.567 501.293 153.086 501.803 155.447C501.814 155.557 501.835 155.666 501.865 155.772L501.889 155.853V155.853C502.105 156.515 502.664 157.075 503.351 157.251C503.135 158.449 502.932 159.65 502.76 160.858C502.466 162.933 502.198 165.011 501.934 167.09L501.618 169.585C501.32 171.936 501.03 174.289 500.744 176.641C500.014 176.947 499.27 177.199 498.508 177.417C496.753 177.92 494.956 178.125 493.144 178.303C489.456 178.665 485.74 178.833 482.038 179.039L481.245 179.084C477.084 179.323 472.9 179.365 468.749 178.937C466.691 178.725 464.649 178.369 462.642 177.865C461.622 177.609 460.631 177.226 459.613 176.975C459.275 176.892 458.973 176.7 458.635 176.496C458.485 176.306 458.274 176.162 458 176.106L457.925 176.093V176.093L457.852 176.082L457.826 176.071L457.828 176.079C457.62 176.051 457.422 176.051 457.236 176.076C457.161 174.242 457.081 172.408 456.98 170.574C456.709 165.649 455.962 160.511 456.96 155.629C456.993 155.465 456.77 155.407 456.712 155.56C454.754 160.729 454.974 166.381 454.875 171.82C454.779 177.14 454.837 182.464 454.863 187.785C454.483 187.947 454.143 188.167 453.875 188.475C453.338 189.092 453.183 190.163 453.875 190.758C454.181 191.022 454.52 191.205 454.88 191.332C454.899 195.955 454.932 200.578 454.978 205.201C454.1 205.88 454.018 207.492 455.011 208.162C455.176 223.132 455.448 238.103 455.673 253.071L456.145 284.475V284.475C456.208 288.659 456.312 292.843 456.349 297.026L456.32 297.038V297.038L456.215 297.087C456.039 297.169 455.778 297.303 455.723 297.44C455.709 297.476 455.705 297.5 455.707 297.519C455.419 297.559 455.134 297.695 454.887 297.93C454.278 298.51 454.402 299.384 454.887 299.975L455.017 300.133V300.133C455.32 300.501 455.894 300.643 456.364 300.568C456.359 303.179 456.342 305.791 456.35 308.402C456.353 309.199 456.365 309.997 456.379 310.794L456.412 312.707C456.434 313.798 456.53 315.185 457.646 315.675C458.905 316.228 460.033 315.775 460.543 314.494C460.681 314.147 460.651 313.824 460.601 313.481C460.617 312.966 460.697 312.369 460.687 311.891L460.646 309.897V309.897C460.639 309.59 460.627 309.282 460.618 308.975L460.654 308.979V308.979C465.127 309.196 469.631 309.09 474.112 309.087L476.104 309.09C477.767 309.092 479.433 309.083 481.093 309.019L481.715 308.993C482.958 308.934 484.265 308.915 485.554 308.804C485.389 310.129 485.236 311.455 485.099 312.782C484.97 314.041 486.266 315.11 487.423 315.11C488.797 315.11 489.582 314.028 489.747 312.782C490.523 306.904 490.841 300.97 491.582 295.088C492.247 289.819 492.822 284.539 493.408 279.26L493.604 277.5C495.746 258.29 497.826 239.073 499.816 219.847L500.742 210.859C501.678 201.8 502.619 192.741 503.413 183.669C503.867 178.482 504.285 173.294 504.678 168.103C504.967 164.288 505.149 160.495 505.267 156.689C505.732 156.209 505.966 155.508 505.759 154.784C505.639 154.362 505.499 153.942 505.351 153.523C505.36 153.111 505.369 152.699 505.377 152.286C505.385 151.896 504.989 151.695 504.673 151.76C504.097 150.364 503.463 148.98 502.935 147.598C502.079 145.361 501.373 142.95 500.164 140.879ZM547.969 165.062C539.021 159.444 528.369 155.402 517.701 155.837C517.459 155.847 517.39 156.217 517.642 156.274C523.333 157.546 529.086 159.097 534.473 161.353C539.876 163.616 545.013 166.663 549.589 170.325C558.031 177.081 564.593 185.868 568.913 195.774C571.444 201.576 573.218 207.703 574.767 213.831C576.406 220.317 577.757 226.872 578.881 233.467C581.099 246.494 582.391 259.665 583.078 272.858C583.778 286.279 583.489 299.709 583.988 313.131C584.074 315.457 587.393 315.412 587.561 313.131C588.691 297.871 588.065 282.367 587.02 267.117C586.08 253.408 584.439 239.727 581.797 226.239L581.567 225.07C579.097 212.59 576.117 199.809 570.145 188.507C565.047 178.858 557.176 170.842 547.969 165.062ZM423.711 224.705C423.664 224.571 423.488 224.573 423.441 224.705C422.42 227.565 422.384 230.793 422.113 233.808L422.091 234.04C421.831 236.79 421.636 239.544 421.454 242.299L421.386 243.333C420.655 254.575 419.742 265.805 418.366 276.989C416.994 288.13 415.14 299.194 413.135 310.235C412.911 311.464 413.455 312.717 414.742 313.071C415.876 313.383 417.333 312.683 417.573 311.461C418.817 305.123 419.824 298.777 420.722 292.384C422.303 281.128 423.483 269.819 424.241 258.477C424.622 252.78 424.857 247.086 424.95 241.377C424.993 238.728 424.924 236.073 424.783 233.427L424.749 232.817C424.594 230.112 424.61 227.284 423.711 224.705ZM520.401 296.313C520.281 296.248 520.133 296.381 520.209 296.505C521.942 299.326 524.286 301.758 526.551 304.155C528.919 306.661 531.229 309.243 533.646 311.699C535.391 313.474 538.2 310.611 536.357 308.983C533.767 306.694 531.059 304.519 528.422 302.281L527.269 301.302C525.107 299.472 522.881 297.659 520.401 296.313ZM438.106 294.9C438.235 294.654 437.94 294.453 437.739 294.617C436.342 295.755 435.089 297.113 433.74 298.315C432.403 299.505 431.017 300.615 429.592 301.698C428.162 302.785 426.701 303.828 425.2 304.816C423.955 305.635 422.672 306.291 421.369 306.971C420.765 307.049 420.206 307.345 419.759 307.908C419.051 308.798 418.976 310.476 419.957 311.249L420.133 311.387V311.387C421.279 312.289 422.638 312.399 423.765 311.387C425.024 310.258 426.214 309.016 427.423 307.822L427.786 307.466C429.085 306.201 430.352 304.896 431.547 303.531L432.628 302.299C434.635 300.007 436.724 297.536 438.106 294.9ZM444.544 162.752C444.776 162.598 444.633 162.183 444.346 162.282L443.82 162.464C441.621 163.229 439.357 164.078 437.36 165.257C435.215 166.524 433.233 168.032 431.341 169.651C427.423 173.001 424.089 177.121 421.257 181.415C415.573 190.032 412.058 199.901 409.22 209.775C406.194 220.303 403.864 231.058 401.962 241.843C400.029 252.804 398.537 263.864 397.557 274.951C397.075 280.413 396.751 285.878 396.588 291.359C396.504 294.178 396.506 296.996 396.53 299.816C396.536 300.542 396.531 301.266 396.523 301.991L396.495 304.167C396.481 305.542 396.316 306.987 396.642 308.331C397.168 310.494 400.737 310.09 400.62 307.88C400.728 307.144 400.732 306.384 400.704 305.622C400.721 305.524 400.739 305.424 400.76 305.322C400.818 305.03 400.769 304.759 400.654 304.527C400.636 304.161 400.619 303.798 400.613 303.441C400.589 301.989 400.591 300.543 400.631 299.091C400.716 296.03 400.837 292.969 400.96 289.91C401.205 283.795 401.547 277.679 402.041 271.579C403.763 250.35 407.398 228.999 413.503 208.575C416.339 199.09 420.249 189.779 425.855 181.583C428.344 177.945 431.152 174.584 434.264 171.465C437.397 168.326 440.848 165.204 444.544 162.752ZM486.792 299.609L486.369 302.674C486.157 304.207 485.948 305.741 485.749 307.276C484.398 307.09 483.017 307.013 481.715 306.897C479.437 306.695 477.143 306.597 474.858 306.503C470.133 306.308 465.385 305.969 460.655 305.993C460.606 305.993 460.56 305.996 460.514 306L460.28 299.951V299.951L463.603 299.946V299.946C466.419 299.941 469.234 299.917 472.049 299.893C474.585 299.871 477.122 299.868 479.657 299.815L480.744 299.789C482.666 299.737 484.789 299.844 486.792 299.609ZM460.001 290.828C460.137 290.844 460.275 290.858 460.421 290.864C461.079 290.892 461.743 290.873 462.402 290.878C463.804 290.89 465.206 290.9 466.609 290.899C469.414 290.899 472.219 290.916 475.024 290.95C477.911 290.985 480.796 291.035 483.684 291.041C485.083 291.043 486.478 291.006 487.876 290.967C487.65 292.958 487.413 294.947 487.152 296.932C484.981 296.638 482.645 296.786 480.522 296.766L480.247 296.762C477.35 296.713 474.45 296.75 471.552 296.753C468.571 296.756 465.591 296.766 462.609 296.791L460.16 296.811V296.811L460.155 296.687V296.687C460.084 294.736 460.037 292.783 460.001 290.828ZM488.953 281.304C488.682 283.654 488.427 286.008 488.167 288.361C487.994 288.335 487.82 288.312 487.641 288.293C486.24 288.146 484.842 288.02 483.436 287.933C480.633 287.759 477.831 287.667 475.024 287.592C472.137 287.514 469.249 287.455 466.362 287.414C464.959 287.394 463.557 287.396 462.154 287.406C461.496 287.41 460.831 287.39 460.174 287.434C460.096 287.439 460.021 287.447 459.946 287.456L459.897 283.923C459.888 283.334 459.88 282.745 459.87 282.157C462.039 282.29 464.243 282.239 466.41 282.24L466.909 282.241C469.632 282.254 472.355 282.216 475.078 282.16C477.886 282.101 480.689 282.009 483.492 281.829C484.628 281.756 485.755 281.659 486.885 281.534L487.45 281.47C487.941 281.412 488.447 281.365 488.953 281.304ZM459.646 271.333C464.868 271.748 470.063 271.922 475.299 271.973L476.085 271.98C480.712 272.015 485.377 272.206 490.015 272.084C489.738 274.492 489.462 276.901 489.183 279.309C488.519 279.278 487.851 279.277 487.202 279.254C485.882 279.206 484.565 279.194 483.244 279.191C480.522 279.185 477.8 279.209 475.077 279.203C472.272 279.197 469.467 279.15 466.662 279.097C464.387 279.054 462.089 278.883 459.809 278.889L459.646 271.333V271.333ZM459.425 261.058C460.03 261.259 460.745 261.272 461.528 261.308L463.55 261.409C464.487 261.455 465.424 261.498 466.362 261.532C469.486 261.647 472.61 261.754 475.735 261.854C478.937 261.955 482.154 262.015 485.356 261.913C486.925 261.864 488.481 261.781 490.045 261.65C490.431 261.618 490.825 261.597 491.22 261.569C490.856 264.76 490.491 267.95 490.124 271.141C485.508 270.574 480.857 270.22 476.246 269.633L472.078 269.1C467.911 268.567 463.748 268.045 459.566 267.604L459.425 261.058V261.058ZM459.203 250.669C460.091 250.889 461.103 250.878 461.955 250.932L462.113 250.943C463.729 251.065 465.349 251.127 466.968 251.167C470.142 251.245 473.317 251.284 476.492 251.304L478.401 251.316C480.946 251.331 483.49 251.337 486.036 251.278C487.669 251.24 489.298 251.159 490.93 251.078C491.419 251.053 491.918 251.037 492.42 251.012C492.078 254.033 491.734 257.053 491.39 260.074C490.854 259.988 490.315 259.923 489.802 259.837C488.487 259.614 487.174 259.436 485.85 259.277C482.981 258.933 480.097 258.685 477.215 258.476C474.256 258.261 471.294 258.079 468.335 257.872L466.239 257.724C465.54 257.675 464.841 257.628 464.142 257.585C462.948 257.512 461.561 257.595 460.377 257.334C460.056 257.2 459.7 257.17 459.344 257.246L459.203 250.669V250.669ZM458.934 238.509C459.241 238.9 459.7 239.105 460.247 239.175C463.097 239.546 466.02 239.605 468.894 239.78L469.401 239.812C472.368 240.008 475.337 240.161 478.306 240.319C481.357 240.482 484.407 240.614 487.46 240.72C488.756 240.766 490.058 240.771 491.356 240.754L491.912 240.746C492.446 240.737 493.004 240.738 493.563 240.72C493.254 243.545 492.941 246.37 492.624 249.194C492.053 249.132 491.483 249.084 490.93 249.026C489.299 248.853 487.67 248.682 486.036 248.553C482.939 248.309 479.84 248.162 476.737 248.008C473.562 247.85 470.386 247.746 467.211 247.597C465.672 247.525 464.133 247.435 462.598 247.294C461.522 247.195 460.245 246.828 459.122 246.962C459.061 244.144 458.997 241.327 458.934 238.509ZM458.684 227.616C458.732 227.691 458.789 227.764 458.858 227.832C460.113 229.074 461.659 228.978 463.322 229.108L463.423 229.116C465.053 229.254 466.683 229.384 468.314 229.502C471.575 229.738 474.842 229.903 478.108 230.05C481.45 230.2 484.813 230.304 488.158 230.235C490.3 230.192 492.544 230.199 494.729 229.99C494.394 233.101 494.056 236.212 493.716 239.323C493.102 239.207 492.483 239.118 491.898 239.026C490.422 238.793 488.944 238.559 487.46 238.388C484.493 238.046 481.526 237.726 478.553 237.437C476.012 237.191 473.471 236.94 470.927 236.714L469.4 236.582C466.365 236.326 463.292 235.905 460.247 235.842C459.745 235.832 459.178 236.106 458.89 236.537C458.823 233.563 458.753 230.59 458.684 227.616ZM458.473 218.797C459.248 218.892 460.083 218.838 460.798 218.861C462.607 218.921 464.415 218.975 466.224 219.029L477.076 219.35V219.35C480.77 219.459 484.478 219.541 488.174 219.488C489.8 219.465 491.433 219.463 493.059 219.374L493.6 219.341C494.269 219.297 495.09 219.29 495.891 219.209L494.945 227.99V227.99C492.771 227.675 490.53 227.557 488.374 227.373L487.913 227.332C484.733 227.042 481.538 226.85 478.353 226.634C475.085 226.412 471.822 226.143 468.559 225.868C466.928 225.731 465.297 225.594 463.668 225.444L463.466 225.424C461.927 225.263 460.479 224.92 459.116 225.829C458.916 225.962 458.76 226.14 458.653 226.339C458.594 223.825 458.535 221.311 458.473 218.797ZM458.22 208.549C464.829 208.816 471.439 209.018 478.053 209.107C481.776 209.157 485.494 209.121 489.216 209.044C490.83 209.01 492.458 208.932 494.07 208.809L494.675 208.76C495.441 208.695 496.247 208.648 497.049 208.571C496.718 211.59 496.389 214.61 496.062 217.63C495.273 217.483 494.449 217.415 493.757 217.327L493.6 217.306C491.882 217.069 490.148 216.931 488.421 216.779C485.059 216.482 481.68 216.291 478.309 216.128C474.857 215.962 471.403 215.821 467.95 215.667L464.498 215.512C463.922 215.487 463.347 215.462 462.771 215.437C461.949 215.403 461.127 215.369 460.305 215.335C459.899 215.318 459.478 215.263 459.072 215.284L458.956 215.269C458.903 215.262 458.856 215.256 458.813 215.252C458.702 215.168 458.583 215.098 458.457 215.045L458.381 215.015L458.22 208.549ZM498.133 198.838C497.826 201.555 497.522 204.274 497.223 206.993C496.28 206.885 495.326 206.826 494.426 206.744C492.611 206.582 490.788 206.439 488.968 206.355L485.33 206.186C482.905 206.073 480.48 205.965 478.053 205.876C471.411 205.633 464.769 205.355 458.131 205.015C458.084 203.171 458.036 201.327 457.986 199.483C458.305 199.825 458.765 200.05 459.37 200.049C466.339 200.03 473.313 200.07 480.282 199.956C483.769 199.898 487.253 199.813 490.737 199.634C492.442 199.547 494.156 199.368 495.848 199.133C496.569 199.033 497.359 198.962 498.133 198.838ZM499.248 189.153C498.92 191.937 498.599 194.722 498.283 197.507C497.417 197.352 496.523 197.27 495.716 197.16C493.981 196.924 492.236 196.736 490.488 196.637C487.088 196.444 483.686 196.347 480.282 196.275C473.314 196.126 466.339 196.127 459.37 196.072C458.715 196.067 458.229 196.326 457.91 196.714C457.862 194.975 457.811 193.236 457.758 191.498C458.431 191.426 459.099 191.326 459.716 191.282C461.614 191.15 463.513 191.028 465.413 190.919C469.377 190.692 473.345 190.497 477.311 190.324C481.279 190.151 485.248 189.982 489.217 189.835L490.953 189.772C493.713 189.669 496.52 189.539 499.248 189.153ZM500.496 178.667C500.155 181.487 499.819 184.307 499.484 187.128L499.382 188.001V188.001C496.063 187.354 492.565 187.165 489.217 187.022C485.247 186.853 481.285 186.766 477.311 186.778C473.342 186.79 469.379 186.884 465.413 187.049C463.431 187.13 461.45 187.225 459.469 187.333C458.925 187.363 458.286 187.347 457.629 187.356C457.615 186.913 457.603 186.47 457.587 186.027C457.527 184.232 457.468 182.436 457.407 180.641C458.746 181.33 460.488 181.608 461.834 181.902L461.988 181.936C464.211 182.436 466.48 182.76 468.749 182.959C473.205 183.348 477.707 183.202 482.159 182.825L482.938 182.759C486.847 182.419 490.9 181.989 494.69 181.02C496.495 180.558 498.361 179.912 499.978 178.976C500.147 178.879 500.32 178.776 500.496 178.667ZM462.858 145.158C462.819 145.005 462.591 144.97 462.516 145.113C461.99 146.115 461.794 147.317 461.428 148.39C461.035 149.544 460.668 150.707 460.234 151.847C459.328 154.228 458.258 156.517 456.983 158.723C455.72 160.908 459.256 162.468 460.185 160.076C461.145 157.608 461.933 155.056 462.41 152.448C462.643 151.175 462.851 149.885 462.918 148.592C462.976 147.482 463.132 146.241 462.858 145.158Z" fill="black"/>
<path fill-rule="evenodd" clip-rule="evenodd" d="M437.05 96.6999C437.149 91.1093 437.259 85.407 438.088 79.8708C438.899 74.4585 441.131 69.5662 444.965 65.6359C453.11 57.2875 464.916 55.2484 475.905 53.3797L494.693 50.1847C500.425 49.2101 506.54 47.6524 512.331 49.0345C515.185 49.7155 517.609 51.2977 519.824 53.1696C521.958 54.9739 524.254 56.9114 525.7 59.3389C527.15 61.7698 527.648 64.6115 528.119 67.3608C528.651 70.4606 529.063 73.5845 529.357 76.7159C529.944 82.9898 530.024 89.3108 529.598 95.5976C529.392 98.6469 529.063 101.688 528.644 104.715C528.436 106.216 528.2 107.713 527.935 109.205C527.857 109.645 527.797 110.132 527.717 110.624C528.31 112.313 528.646 114.061 528.619 115.803C528.539 120.932 524.218 124.161 519.861 125.894C517.335 126.899 514.694 127.582 512.212 128.705C509.601 129.887 507.824 131.801 506.039 133.986C502.634 138.152 498.792 141.896 494.405 145.02C485.103 151.644 473.322 154.776 462.035 152.399C459.328 151.828 456.596 150.942 454.162 149.607C451.592 148.198 449.659 146.156 448.036 143.741C445.023 139.259 442.862 134.212 441.228 129.076C439.56 123.837 438.377 118.588 437.731 113.125C437.088 107.68 436.953 102.179 437.05 96.6999V96.6999Z" fill="white"/>
<path fill-rule="evenodd" clip-rule="evenodd" d="M497.006 30.7102C489.231 29.6389 478.499 33.1209 474.627 40.142C456.141 35.7762 432.825 35.6332 417.589 50.1666C401.69 67.4064 421.66 90.1372 434.901 95.2621C433.937 99.9555 435.44 130.023 446.077 143.435C454.518 154.799 474.175 160.043 483.271 146.47L483.342 146.358C484.317 144.791 483.477 144.841 482.477 146.007C473.57 153.854 461.459 153.988 452.127 145.707C434.637 130.571 436.44 93.4598 444.763 71.9903C468.462 69.3829 493.836 76.5784 510.204 94.4488L509.097 101.124C508.909 102.261 508.694 103.397 508.531 104.539C508.426 105.27 508.415 105.997 508.92 106.589C510.59 108.543 513.404 105.607 515.72 104.439C516.404 104.342 517.088 104.305 517.76 104.353C528.885 105.788 526.693 127.407 514.466 123.618C513.439 122.977 512.556 123.172 512.157 124.103C509.243 126.777 507.321 131.546 502.479 136.14C500.771 137.863 499.216 139.305 497.294 140.687C496.165 141.831 492.759 142.997 493.839 144.953C495.881 149.406 507.921 135.42 510.05 131.552C516.719 134.19 524.111 133.294 531.023 132.649C567.486 130.75 562.618 92.246 532.73 67.9365C527.104 63.7874 520.897 60.4026 514.444 57.798C513.563 57.4424 513.948 55.9935 514.842 56.3541C519.111 58.0778 523.273 60.1294 527.24 62.5039L527.247 61.0843C527.252 58.6932 527.215 56.2039 526.8 54.0193C526.593 52.5055 526.245 50.8886 525.708 49.6722C525.045 45.9431 514.652 33.1429 497.006 30.7102ZM518.247 109.316C517.684 108.78 516.633 109.419 516.132 109.403C514.85 109.579 513.632 110.121 512.683 110.79C512.056 111.142 511.616 111.473 511.249 111.777L511.239 111.774C511.242 111.774 511.245 111.777 511.248 111.777L511.214 111.801C510.679 112.181 508.722 114.325 509.958 113.748C510.05 113.628 510.145 113.513 510.24 113.4C510.25 113.415 510.264 113.431 510.281 113.445L510.212 113.549C509.161 115.133 510.975 113.464 511.255 113.021C511.268 113.031 511.283 113.039 511.297 113.046L510.934 113.49C510.883 113.553 510.843 113.603 510.81 113.645L510.733 113.719C509.518 114.916 509.48 115.993 510.892 114.224C510.836 114.307 510.792 114.396 510.786 114.474L510.702 114.581C509.593 116.012 510.495 115.503 511.046 114.892L511.092 114.84L511.082 114.854C510.57 115.645 511.587 115.09 511.766 114.667L511.774 114.648C511.97 114.488 512.09 114.308 512.132 114.263L512.139 114.255C513.092 113.277 514.474 112.449 515.648 112.073C515.818 112.041 515.99 112.015 516.164 111.996C516.87 111.839 517.583 111.73 518.304 111.672C518.392 111.662 518.482 111.597 518.548 111.513C519.639 111.476 519.302 111.028 518.85 110.945L518.842 110.944L518.932 110.936C519.631 110.868 520.109 110.616 519.402 110.462L519.312 110.444C519.323 110.427 519.333 110.41 519.342 110.393C519.948 110.326 519.553 109.736 519.216 109.879C519.358 109.415 518.711 109.647 518.63 109.578C518.569 109.509 518.492 109.449 518.448 109.446C518.253 109.308 518.348 109.321 518.247 109.316ZM514.539 101.813L514.681 101.896C514.796 101.963 514.914 102.008 515.033 102.034C514.865 102.105 514.7 102.183 514.536 102.265C514.539 102.164 514.541 102.064 514.541 101.963L514.539 101.813Z" fill="black"/>
<path fill-rule="evenodd" clip-rule="evenodd" d="M459.109 132.379C460.944 132.911 462.914 132.959 464.784 132.409C466.481 131.91 468.223 130.812 469.472 129.36C470.581 128.069 471.3 126.501 471.271 124.828C471.268 124.636 471.2 124.477 471.095 124.353C470.982 124.22 470.824 124.128 470.655 124.088C470.481 124.048 470.297 124.062 470.141 124.133C469.999 124.198 469.878 124.307 469.802 124.467C469.61 124.72 469.419 124.969 469.227 125.211C467.684 127.119 466.189 128.546 463.869 129.057C462.61 129.335 461.353 129.212 460.199 128.788C458.964 128.335 457.848 127.537 456.973 126.517C456.578 126.056 456.111 125.868 455.655 125.865C455.138 125.861 454.626 126.102 454.241 126.487C453.863 126.865 453.609 127.379 453.586 127.917C453.566 128.388 453.72 128.881 454.129 129.321C455.475 130.77 457.22 131.831 459.109 132.379ZM459.165 108.473C457.283 109.619 454.417 112.29 456.441 115.129C458.823 117.633 462.253 114.762 463.943 113.464C465.51 112.458 467.271 115.046 465.817 116.221C453.604 125.279 448.648 108.773 458.213 107.126C459.266 106.945 459.658 108.119 459.165 108.473ZM476.762 103.433C477.367 103.046 478.078 102.913 478.866 103.272C479.482 103.552 480.563 104.488 481.315 105.718C481.829 106.559 482.194 107.546 482.118 108.574C482.1 108.813 482.188 108.989 482.327 109.119C482.437 109.222 482.595 109.297 482.781 109.321C482.939 109.341 483.116 109.323 483.26 109.278C483.534 109.192 483.678 109.015 483.733 108.869C484.259 107.469 484.033 105.906 483.443 104.496C482.646 102.593 481.2 100.999 480.253 100.485C478.632 99.6055 476.719 99.5651 475.096 100.461C473.714 101.224 472.85 102.455 471.99 103.711C471.808 103.978 471.626 104.242 471.439 104.503C471.063 105.024 471.026 105.541 471.171 105.985C471.332 106.476 471.743 106.891 472.257 107.108C472.732 107.308 473.283 107.336 473.771 107.13C474.183 106.956 474.561 106.617 474.8 106.041C475.203 105.072 475.874 104.002 476.762 103.433V103.433ZM446.055 105.59C446.469 105.806 446.793 105.871 447.252 105.734C447.506 105.657 447.757 105.511 447.954 105.314C448.149 105.119 448.289 104.876 448.344 104.607C448.478 103.942 448.841 103.32 449.358 102.915C449.8 102.569 450.358 102.385 450.977 102.488C451.645 102.6 452.281 103.029 452.719 103.535C452.866 103.704 452.98 103.896 453.096 104.087C453.312 104.444 453.522 104.776 453.819 105.038C453.932 105.138 454.102 105.207 454.267 105.207C454.334 105.207 454.402 105.196 454.467 105.176C455.131 104.508 455.259 104.001 455.238 103.498C455.215 102.971 455.008 102.437 454.672 101.939C453.886 100.771 452.392 99.8126 451.384 99.5956C450.004 99.2985 448.633 99.6551 447.534 100.427C446.403 101.222 445.566 102.456 445.304 103.846C445.241 104.181 445.268 104.542 445.395 104.856C445.52 105.162 445.737 105.424 446.055 105.59ZM473.718 90.9757C474.547 91.7841 475.527 91.9093 476.519 92.0207C477.07 92.0832 477.51 92.1336 477.943 92.2314C479.133 92.5005 480.309 92.9057 481.382 93.4893C482.504 94.0994 483.726 94.8352 484.606 95.7778C484.815 96.0021 485.012 96.2375 485.209 96.4734C485.389 96.6885 485.563 96.8955 485.745 97.0952C485.955 97.3245 486.154 97.5649 486.353 97.8046C486.475 98.0069 486.499 98.0566 486.524 98.1084C486.561 98.1862 486.605 98.2733 486.654 98.3668C486.721 98.4947 486.801 98.6348 486.884 98.7618C487.021 98.9939 487.096 99.0578 487.159 99.0864C487.266 99.1338 487.366 99.1571 487.464 99.1445C487.555 99.1326 487.642 99.0886 487.727 99.0165C488.152 98.6565 488.278 98.0659 488.265 97.4388C488.245 96.4873 487.895 95.4339 487.572 94.7863C486.821 93.2815 485.78 91.7172 484.527 90.5942C483.098 89.3122 481.535 88.3417 479.739 87.6729C478.623 87.2572 477.331 86.8756 476.116 86.9238C475.241 86.9585 474.405 87.2191 473.715 87.8698C473.292 88.2693 473.088 88.8375 473.088 89.4053C473.088 89.9844 473.3 90.5669 473.718 90.9757ZM444.37 98.3788C444.423 98.4653 444.496 98.5249 444.577 98.5607C444.662 98.5982 444.757 98.609 444.848 98.5936C444.939 98.5783 445.025 98.5371 445.093 98.4742C445.159 98.4138 445.209 98.3338 445.231 98.2358C445.781 95.8162 446.849 94.016 449.128 92.8551C450.249 92.284 451.538 91.9212 452.759 91.6319C453.113 91.5478 453.488 91.4934 453.866 91.4382C455.048 91.2652 456.24 91.067 457.011 90.1093C457.475 89.5324 457.67 88.7946 457.56 88.1198C457.456 87.4845 457.086 86.902 456.412 86.5529C454.735 85.6842 452.651 86.5366 450.957 87.2628C450.831 87.3166 450.708 87.3695 450.587 87.4205C448.931 88.1209 447.42 89.0453 446.179 90.3674C445.193 91.4163 444.28 92.9668 443.913 94.5619C443.607 95.8889 443.679 97.2437 444.37 98.3788Z" fill="black"/>
<path fill-rule="evenodd" clip-rule="evenodd" d="M458.891 118.196C461.662 116.946 466.637 118.037 468.443 118.47C472.642 119.479 476.866 121.659 478.171 125.074C479.642 128.923 476.707 130.135 476.275 129.937C473.369 130.142 469.907 128.311 466.861 127.839C464.388 127.452 461.78 127.115 459.463 125.798C457.771 126.73 453.951 127.234 450.868 128.049C448.242 128.743 447.104 130.248 444.67 129.928C441.752 129.544 442.946 123.397 446.198 120.907C449.757 118.181 455.776 117.076 458.891 118.196ZM453.406 144.481C455.829 145.072 455.992 139.751 456.264 137.871C456.476 136.402 457.672 132.614 460.705 132.777C463.739 132.941 464.879 136.114 464.725 138.088C464.625 139.368 463.448 145.852 467.206 146.672C469.603 146.664 472.375 146.502 474.894 146.036C477.86 145.364 481.716 143.008 482.735 147.647C483.101 149.317 470.038 154.277 464.241 154.726C458.362 155.919 451.484 154.084 447.299 149.579C446.346 148.554 443.665 144.3 443.473 143.258C443.072 141.068 444.002 139.659 446.706 140.43C448.617 141.453 451.847 144.1 453.406 144.481Z" fill="black"/>
<path fill-rule="evenodd" clip-rule="evenodd" d="M441.683 112.722C445.422 114.526 450.638 111.865 453.152 109.079C454.067 108.064 454.773 105.161 454.421 103.32C453.467 98.3333 449.885 95.3406 446.103 94.3187C440.861 92.9017 435.585 96.4913 436.2 100.727C436.783 104.742 437.667 110.565 441.683 112.722M467.131 103.144C467.43 108.578 471.787 113.334 476.993 114.744C485.382 117.088 489.528 111.181 491.406 104.817C491.592 104.185 492.031 102.255 490.854 100.599C486.225 94.087 474.961 95.1971 469.336 96.9849C467.689 98.5623 467.016 100.839 467.131 103.144M437.621 93.7714C437.623 93.7746 437.626 93.7774 437.629 93.7806C437.648 93.7689 437.667 93.7569 437.686 93.7454C437.665 93.7544 437.642 93.7622 437.621 93.7714M430.602 94.3995C431.089 88.8668 448.419 90.9853 450.445 91.4387C455.974 93.0678 460.75 97.4999 466.932 95.5517C473.338 88.3986 494.909 90.45 499.431 94.0938C500.287 93.7573 501.328 93.9378 502.431 94.2552C508.094 94.0503 533.949 96.0061 528.66 103.247C527.858 103.805 527.056 103.237 527.034 102.088C499.465 92.1193 502.138 101.457 498.868 100.366C498.369 100.51 497.848 100.601 497.392 100.697C494.862 101.513 494.003 101.261 493.669 104.106C491.379 126.08 462.169 118.496 464.564 100.472C462.192 100.341 460.117 99.314 457.609 100.317C455.867 117.296 442.228 117.981 438.123 112.096C435.028 108.01 436.255 101.845 432 98.6317C430.321 100.04 430.213 95.2876 430.602 94.3995" fill="black"/>
</g>
<g clip-path="url(#clip2_852_8769)">
<path fill-rule="evenodd" clip-rule="evenodd" d="M381.796 291.477C381.283 286.715 380.968 281.919 380.786 277.133C380.605 272.353 380.842 267.514 380.946 262.732C381.158 253.003 381.502 243.252 380.728 233.539C379.996 224.359 378.317 215.243 375.666 206.422C374.375 202.127 373.015 197.658 370.892 193.689C368.757 189.698 365.375 187.041 361.661 184.603C357.706 182.009 353.783 179.365 349.844 176.746C346.537 174.548 340.586 171.989 337.873 169.05C335.018 165.958 334.482 158.293 332.58 154.63C330.729 151.062 325.488 148.735 321.452 148.735C314.772 148.735 309.711 148.393 304.219 154.574C301.478 157.659 303.659 160.777 300.786 163.737C298.146 166.458 291.392 169.255 287.988 170.834C283.911 172.726 279.732 174.396 275.492 175.883C271.167 177.401 266.732 178.532 262.383 179.964C258.214 181.336 252.77 186.994 249.533 189.988C246.524 192.772 245.777 192.46 243.489 195.841C238.469 203.262 233.443 210.768 229.445 218.802C227.453 222.805 225.525 227.014 224.803 231.459C224.032 236.2 224.796 240.781 226.046 245.371C227.318 250.042 231.358 254.489 232.674 259.148C233.281 261.296 231.199 263.639 232.157 265.662C232.635 266.673 233.237 267.572 233.923 268.453C234.451 269.131 236.512 268.981 236.779 269.811C237.048 270.65 235.557 272.39 235.535 273.258C235.504 274.5 235.454 275.743 235.413 276.985L235.172 284.328C235.014 289.154 234.856 293.979 234.698 298.805C234.646 300.38 234.571 301.919 234.948 303.414C234.812 303.287 234.682 303.15 234.564 302.995C234.218 302.543 233.483 302.926 233.777 303.455C234.268 304.338 234.973 304.96 235.802 305.406C236.765 306.826 382.629 309.999 383.347 305.846C383.75 303.516 383.017 301.022 382.724 298.706C382.419 296.295 382.056 293.894 381.796 291.477Z" fill="white"/>
<path fill-rule="evenodd" clip-rule="evenodd" d="M233.626 231.467C233.982 230.445 235.615 230.888 235.255 231.917C233.408 237.21 234.718 242.971 236.716 248.024C237.116 249.038 235.481 249.473 235.086 248.473C232.985 243.158 231.685 237.027 233.626 231.467ZM246.012 261.704C251.222 262.437 256.436 262.889 261.682 263.255C261.916 263.272 262.119 263.236 262.295 263.16C262.138 265.563 262.011 267.968 261.912 270.373C260.482 270.333 259.022 270.428 257.604 270.39C255.752 270.339 253.901 270.246 252.052 270.105C248.473 269.834 244.901 269.403 241.362 268.807C240.04 268.585 238.36 268.45 236.854 268.01C235.43 267.594 234.162 266.905 233.497 265.607C232.93 264.508 232.827 263.162 232.827 261.947C232.827 261.11 232.971 260.26 233.057 259.417C233.165 259.341 233.262 259.25 233.34 259.148C234.912 259.645 236.543 259.994 238.14 260.332C240.741 260.886 243.38 261.334 246.012 261.704ZM243.074 242.162C243.102 243.777 243.549 245.244 244.419 246.604C245.007 247.525 243.543 248.372 242.959 247.458C241.936 245.856 241.417 244.059 241.384 242.162C241.364 241.071 243.054 241.075 243.074 242.162ZM376.622 259.784C377.327 259.824 378.037 259.848 378.745 259.886C379.369 260.42 380.233 260.693 381.022 260.523C381.049 260.592 381.074 260.668 381.096 260.757C381.236 261.3 381.306 261.883 381.386 262.437C381.466 262.982 381.527 263.532 381.57 264.081C381.591 264.358 381.724 264.984 381.555 265.225C381.403 265.442 381.067 265.423 380.834 265.451C380.209 265.518 379.575 265.55 378.946 265.603C377.756 265.706 376.567 265.81 375.38 265.914C374.215 266.015 372.937 265.984 371.799 266.29C371.604 264.005 371.427 261.721 371.262 259.434C373.026 259.694 374.87 259.687 376.622 259.784ZM228.709 255.995C229.419 257.367 230.074 258.715 231.432 259.539C231.61 259.645 231.809 259.702 232.011 259.717C231.859 260.37 231.764 261.038 231.68 261.655C231.494 263.014 231.454 264.419 231.794 265.759C232.125 267.063 232.675 268.228 233.752 269.063C234.253 269.452 234.8 269.747 235.375 269.982C235.278 270.255 235.22 270.525 235.25 270.823C235.113 271.514 235.022 272.218 234.923 272.892C234.705 274.389 234.487 275.887 234.316 277.392C233.974 280.385 233.706 283.377 233.48 286.381C233.254 289.376 233.091 292.375 232.956 295.376C232.886 296.91 232.825 298.445 232.768 299.981C232.711 301.56 232.455 303.175 233.152 304.639C233.714 305.823 235.613 305.755 236.197 304.639C236.936 303.221 236.718 301.537 236.737 299.981C236.756 298.516 236.782 297.05 236.813 295.585C236.877 292.586 236.97 289.589 237.044 286.59C237.116 283.663 237.204 280.738 237.263 277.81C237.293 276.278 237.295 274.746 237.304 273.214C237.308 272.364 237.344 271.457 237.28 270.572C237.809 270.696 238.341 270.802 238.867 270.91C242.883 271.734 246.942 272.334 251.025 272.706C253.077 272.892 255.135 273.023 257.192 273.098C258.705 273.152 260.273 273.258 261.809 273.201C261.688 276.87 261.633 280.541 261.639 284.212C261.644 286.86 261.68 289.509 261.745 292.157C261.781 293.55 261.811 294.943 261.853 296.335C261.872 296.961 261.872 297.593 261.914 298.216C261.927 298.411 261.954 298.599 261.99 298.785C261.851 299.18 261.735 299.571 261.639 299.937C261.175 301.712 261.175 303.418 261.382 305.227C261.559 306.761 262.85 308.184 264.555 307.645C264.832 307.558 265.109 307.467 265.383 307.374C267.893 307.659 270.418 307.725 272.963 307.774C276.684 307.846 280.406 307.869 284.129 307.888C291.43 307.926 298.734 307.945 306.037 307.966C320.714 308.008 335.391 308.048 350.068 308.091C354.141 308.104 358.214 308.114 362.287 308.127C364.396 308.133 366.5 308.135 368.606 308.216C369.589 308.254 370.573 308.306 371.556 308.321C372.694 308.34 373.702 308.012 374.79 307.715C375.405 307.543 375.648 306.926 375.517 306.404C376.501 306.639 377.695 306.14 378.031 305.03C378.276 304.225 378.185 303.352 377.82 302.606V302.604C377.114 298.147 376.218 293.71 375.515 289.251C374.744 284.367 374.002 279.472 373.349 274.569C372.859 270.865 372.456 273.49 372.107 269.771C373.626 269.889 375.344 269.426 376.848 269.23C377.928 269.09 379.016 268.978 380.097 268.83C380.017 269.921 380.04 271.032 380.011 272.079C379.954 274.156 379.979 276.225 380.032 278.303C380.133 282.312 380.359 279.979 380.72 283.971C381.086 287.993 381.534 292.001 382.077 296.004C382.356 298.064 382.654 300.123 382.968 302.179C383.114 303.139 383.264 304.096 383.418 305.056C383.602 306.186 383.661 307.258 384.509 308.108C385.153 308.752 386.469 308.697 386.896 307.799C387.437 306.664 387.192 305.692 386.991 304.5C386.828 303.542 386.672 302.585 386.518 301.628C386.188 299.575 385.875 297.521 385.582 295.465C385.016 291.502 384.481 287.533 384.004 283.559C383.522 279.554 383.023 281.894 382.55 277.889C382.311 275.868 382.073 273.852 381.794 271.838C381.652 270.802 381.563 269.699 381.378 268.632C381.437 268.623 381.496 268.612 381.555 268.602C382.84 268.367 383.936 267.642 384.259 266.319C384.568 265.053 384.2 263.597 383.94 262.355C383.718 261.296 383.518 259.945 382.837 259.038C385.237 255.98 386.798 252.132 387.794 248.432C388.878 244.401 389.332 240.194 389.428 236.029C389.54 231.203 389.176 226.405 388.35 221.687C388.33 220.687 388.284 219.688 388.21 218.689C387.483 208.891 384.432 197.295 374.761 192.717C374.723 192.698 374.682 192.681 374.642 192.664C373.884 191.757 372.937 190.941 372.173 190.179C370.818 188.826 369.403 187.532 367.903 186.34C364.932 183.98 361.675 182.094 358.288 180.397C354.863 178.679 351.388 177.066 348.042 175.191C345.126 173.556 342.502 171.586 340.011 169.362C337.212 166.862 335.22 163.491 334.438 159.811C334.398 159.619 334.113 159.672 334.109 159.856C333.904 166.6 338.454 172.56 343.692 176.331C349.954 180.835 357.515 182.967 363.866 187.334C365.444 188.418 366.92 189.642 368.325 190.941C366.173 190.721 363.982 190.861 361.964 191.457C361.17 191.408 360.371 191.394 359.575 191.356C357.754 191.265 355.93 191.18 354.107 191.1C350.391 190.935 346.673 190.785 342.954 190.654C335.659 190.396 328.362 190.202 321.065 190.073C306.401 189.813 291.718 189.762 277.056 190.187C273.08 190.301 252.173 189.509 250.237 189.732C253.083 187.268 256.206 185.256 259.639 183.601C263.934 181.536 268.373 180.158 272.959 178.899C282.405 176.305 292.214 173.805 299.773 167.217C301.651 165.579 303.32 163.696 304.687 161.61C305.993 159.619 307.444 157.07 307.48 154.642C307.506 152.917 305.106 152.29 304.252 153.767C303.722 154.682 303.46 155.686 303.027 156.645C302.596 157.597 302.085 158.514 301.516 159.391C300.399 161.116 299.013 162.654 297.504 164.043C294.289 167.006 290.393 169.176 286.362 170.819C277.21 174.545 267.2 176.117 258.528 181.029C254.733 183.178 251.101 186.144 248.822 189.927C248.454 189.984 248.089 190.051 247.723 190.128C247.996 189.783 248.27 189.439 248.547 189.096C248.729 188.872 248.448 188.576 248.226 188.775C243.914 192.613 239.942 196.758 236.342 201.276C232.899 205.601 229.687 210.132 227.414 215.196C223.328 224.293 222.428 234.697 224.539 244.424C225.113 247.074 225.925 249.669 226.958 252.178C227.49 253.473 228.067 254.75 228.709 255.995Z" fill="black"/>
<path fill-rule="evenodd" clip-rule="evenodd" d="M321.798 66.2809C333.794 66.2809 348.819 79.9702 353.216 85.7956C356.913 90.6933 356.39 115.924 356.39 130.892C356.39 134.022 354.975 139.946 354.462 142.941C352.58 153.913 344.383 163.115 328.158 163.115C314.946 163.115 304.78 158.929 294.948 148.222C292.705 145.779 281.752 154.524 279.511 151.375C273.66 151.375 268.767 96.682 280.256 80.2773C291.744 63.8727 309.802 66.2809 321.798 66.2809Z" fill="white"/>
<path fill-rule="evenodd" clip-rule="evenodd" d="M285.744 70.1332C292.676 63.8244 301.91 60.7894 311.227 61.0135C316.052 61.1297 320.861 62.0491 325.418 63.6236C327.697 64.4141 329.905 65.4455 332.016 66.6121C332.776 67.0316 333.477 67.5231 334.152 68.045L334.321 68.1761H334.323C336.133 68.8271 337.749 69.9959 339.216 71.3633C342.154 71.1287 345.116 71.3929 347.958 72.2996C351.913 73.5635 355.574 75.8777 358.145 79.1642C361.14 82.9904 362.136 87.6314 361.781 92.4224L361.715 93.2362C361.364 97.4685 360.734 102.912 357.262 105.693C356.998 105.904 356.706 106.065 356.404 106.162C358.642 109.996 360.478 114.253 361.576 118.551C365.77 134.971 362.546 152.095 357.503 167.921C357.089 169.225 355.118 170.091 354.114 168.817C352.323 166.539 349.72 164.801 346.792 164.476C344.985 164.275 343.187 164.639 341.48 163.818C340.811 163.495 340.164 162.967 339.699 162.324C336.818 163.417 333.714 163.933 330.636 163.806C325.585 163.599 320.185 161.849 316.709 158.011C316.152 157.394 316.01 156.703 316.139 156.079C316.575 155.924 317.022 155.808 317.483 155.735C321.89 158.334 326.748 160.07 331.969 160.179C334.985 160.242 337.928 159.82 340.374 157.936C340.903 157.528 341.39 157.076 341.84 156.591C346.954 153.3 350.56 147.71 352.274 141.722C353.871 136.138 353.675 130.324 353.126 124.596L352.836 121.574C352.413 117.138 352.021 112.688 351.912 108.233L351.945 108.232C353.025 108.162 353.033 106.47 351.945 106.541C349.131 106.723 346.338 106.261 343.533 106.462C343.51 105.136 343.414 103.815 343.024 102.536C342.802 101.804 341.529 101.66 341.395 102.536C341.214 103.706 341.148 104.871 341.129 106.047C336.931 105.991 332.736 105.638 328.538 105.783C327.763 104.957 327.517 103.491 327.154 102.472C327.102 102.322 327.049 102.174 326.994 102.024C326.675 103.481 326.224 104.905 325.631 106.3L324.601 106.303C318.758 106.331 312.797 106.506 307.092 107.719C306.695 107.415 306.459 106.883 306.395 106.401C305.981 103.261 305.391 100.205 304.344 97.2128L304.194 96.7906C304.182 96.7556 304.169 96.7184 304.156 96.6793C303.384 97.9247 302.464 99.0857 301.46 100.167C300.869 100.804 300.248 101.413 299.612 102.005C298.993 102.692 298.354 103.369 297.735 104.058C297.759 104.183 297.78 104.31 297.797 104.44C297.987 105.87 298.007 107.32 297.868 108.755C297.617 111.35 296.885 113.85 295.708 116.163L295.671 116.395C295.492 117.479 295.238 118.599 294.645 119.415C295.385 120.245 295.956 121.237 296.287 122.339C296.581 123.32 295.225 124.17 294.521 123.367C293.963 122.729 293.342 122.201 292.66 121.78C292.617 121.839 292.539 121.868 292.452 121.819C290.552 120.764 287.326 121.083 285.429 122.077C283.069 123.311 282.148 125.845 282.41 128.413C282.661 130.867 283.735 133.735 285.816 134.992C286.771 135.569 287.514 135.618 288.528 135.341C288.853 135.253 289.255 134.983 289.427 134.849L289.597 134.712C290.262 134.187 290.881 133.827 291.666 133.813C292.468 133.563 293.275 133.91 293.582 134.752L293.601 134.806C293.745 135.235 294.006 135.774 293.949 136.43C293.89 137.131 293.569 137.77 293.09 138.283C293.007 138.372 292.918 138.461 292.828 138.543C301.088 147.49 302.149 161.43 297.913 172.606C297.729 173.097 297.533 173.581 297.328 174.061C296.62 175.705 293.895 175.195 293.548 173.566C293.445 173.078 293.33 172.592 293.206 172.11C292.977 171.219 292.714 170.337 292.418 169.468L292.306 169.142C292.054 168.424 291.82 167.699 291.566 166.98L291.541 166.898C291.531 166.866 291.521 166.828 291.509 166.786L291.08 167.722L289.777 170.548C289.167 171.867 287.229 171.15 287.157 169.879L287.155 169.836C287.149 169.601 287.14 169.369 287.126 169.138C287.033 167.411 286.735 165.733 286.261 164.091L286.091 164.303C283.548 167.448 280.565 170.395 276.471 171.121C275.445 171.302 274.283 170.229 274.988 169.191C275.28 168.762 275.561 168.322 275.827 167.876C275.597 167.769 275.379 167.657 275.178 167.542C273.626 166.67 272.333 165.427 271.264 164.017C268.997 161.029 268.185 157.267 267.987 153.585C267.776 149.694 268.118 145.592 269.18 141.838C269.641 140.215 270.264 138.657 270.985 137.146C270.934 137.011 270.885 136.876 270.837 136.74C270.059 134.572 269.421 132.355 268.891 130.112C267.822 125.585 267.247 120.914 267.178 116.263C267.051 107.929 268.487 99.4623 271.515 91.691C274.642 83.6766 279.345 75.9559 285.744 70.1332ZM281.85 142.994C281.276 142.09 279.84 142.905 280.373 143.815L280.393 143.848C281.303 145.283 281.73 146.915 282.254 148.515C282.59 149.544 284.223 149.104 283.883 148.064L283.77 147.717C283.249 146.095 282.773 144.446 281.85 142.994ZM286.851 125.731L287.232 125.546C288.435 124.972 289.49 124.581 290.911 125.082C292.815 125.752 294.853 127.885 293.567 129.954C293.094 130.717 292.253 131.021 291.387 130.841C289.926 130.538 289.549 129.223 288.808 128.143L288.681 127.96C288.229 127.307 287.658 126.403 286.906 126.147C286.734 126.088 286.663 125.822 286.851 125.731ZM287.924 81.8L288.047 81.6899C288.865 80.9671 287.665 79.7751 286.851 80.4936C283.129 83.7844 281.836 88.935 279.905 93.3247C279.472 94.3117 280.927 95.174 281.365 94.1786C283.207 89.9897 284.429 84.9789 287.924 81.8ZM332.658 80.3605C331.685 79.922 330.834 81.3381 331.77 81.8043L331.805 81.8209C335.092 83.3067 336.49 86.6714 337.83 89.7952C338.257 90.7928 339.712 89.9326 339.29 88.9434L339.048 88.3829C337.65 85.1638 336.02 81.8825 332.658 80.3605ZM337.81 78.3273C336.779 77.9701 336.338 79.6017 337.36 79.9589C340.147 80.929 342.059 83.0214 343.671 85.4139C344.275 86.31 345.739 85.4646 345.129 84.56C343.257 81.7829 341.034 79.4517 337.81 78.3273Z" fill="black"/>
<path fill-rule="evenodd" clip-rule="evenodd" d="M332.152 148.274C330.731 147.695 329.464 146.728 328.538 145.493C328.216 145.064 328.132 144.61 328.2 144.196C328.276 143.729 328.552 143.307 328.928 143.023C329.305 142.739 329.777 142.599 330.233 142.67C330.629 142.732 331.024 142.949 331.336 143.4L331.401 143.49C331.952 144.235 332.67 144.847 333.488 145.241C334.276 145.621 335.157 145.798 336.07 145.695C337.807 145.499 339.005 144.559 340.277 143.282C340.435 143.121 340.593 142.955 340.752 142.786C340.852 142.633 340.991 142.535 341.145 142.483C341.317 142.426 341.511 142.429 341.688 142.491C341.859 142.551 342.013 142.664 342.115 142.815C342.213 142.958 342.268 143.135 342.25 143.339C342.134 144.662 341.442 145.842 340.46 146.769C339.37 147.799 337.924 148.511 336.563 148.761C335.063 149.036 333.535 148.839 332.152 148.274ZM337.27 127.867C338.866 128.837 341.296 131.099 339.58 133.504C337.56 135.624 334.651 133.193 333.218 132.093C331.889 131.241 330.396 133.433 331.629 134.428C341.986 142.099 346.189 128.12 338.077 126.726C337.184 126.572 336.852 127.566 337.27 127.867ZM318.71 118.943C318.886 116.754 322.219 116.257 322.55 118.423C322.847 120.363 322.498 122.146 321.624 123.893C320.789 125.561 318.691 124.783 318.533 123.263C318.32 121.226 318.601 120.305 318.71 118.943ZM344.076 117.974C344.54 117.365 345.211 116.95 346.015 117.185C348.526 117.919 347.786 121.485 346.904 123.221C346.425 124.163 344.876 124.402 344.176 123.572C343.035 122.219 342.489 119.516 343.939 118.183C343.978 118.114 344.022 118.044 344.076 117.974ZM321.589 109.366L321.985 109.296C323.212 109.084 324.738 108.88 325.606 109.867C326.066 110.39 326.225 111.363 325.606 111.864C324.517 112.745 323.314 112.403 322.01 112.478C320.935 112.54 319.902 112.718 318.866 113.014C316.595 113.663 314.744 114.849 312.804 116.151C312.549 116.322 312.289 115.996 312.411 115.758C313.531 113.563 315.701 111.761 317.875 110.662C319.035 110.075 320.305 109.589 321.589 109.366ZM341.787 108.383L342.09 108.445C345.394 109.136 349.686 110.516 351.251 113.762C351.31 114.221 351.247 114.319 351.196 114.383L351.179 114.405C351.137 114.46 351.103 114.535 350.904 114.598C350.849 114.585 350.793 114.571 350.737 114.556C350.02 114.368 349.453 114.109 348.903 113.84L348.308 113.547C347.617 113.208 346.92 112.881 346.181 112.64C344.604 112.126 342.983 111.763 341.336 111.57C340.979 111.528 340.636 111.407 340.364 111.201C340.107 111.005 339.91 110.733 339.821 110.373C339.705 109.906 339.738 109.552 339.988 109.131C340.177 108.815 340.446 108.596 340.755 108.47C341.071 108.341 341.43 108.311 341.787 108.383Z" fill="black"/>
<path fill-rule="evenodd" clip-rule="evenodd" d="M355.085 129.758C353.663 131.67 351.026 132.279 348.593 132.068C343.347 131.563 341.696 125.603 341.524 120.97C345.042 121.96 341.227 114.949 353.252 114.178C357.491 113.825 356.322 116.386 358.195 118.257C358.157 122.184 357.503 126.452 355.085 129.758ZM330.099 125.245C327.001 139.755 310.041 136.304 308.26 123.224C309.905 122.063 309.471 119.194 311.515 118.155C314.754 116.085 318.804 116.173 322.482 116.222C327.184 116.545 328.524 118.494 330.939 120.619C330.823 122.039 330.487 123.722 330.099 125.245ZM361.804 111.775C361.63 111.746 361.456 111.719 361.282 111.693C361.146 111.616 360.986 111.557 360.801 111.521C360.377 111.413 359.957 111.341 359.537 111.302C353.509 109.945 339.564 111.872 338.988 117.017C337.069 117.659 335.408 117.084 333.183 117.142C331.489 110.06 302.211 111.06 300.803 115.329C300.798 115.328 300.792 115.326 300.787 115.325C299.434 114.906 297.439 115.007 295.891 114.94C292.584 114.871 289.274 115.166 286.039 115.864C279.981 116.827 271.713 117.954 275.926 125.522C275.927 125.524 275.928 125.525 275.929 125.526L275.929 125.526C276.655 126.27 277.888 125.671 277.933 124.663C276.517 121.077 279.716 120.647 282.178 119.616C288.303 117.415 294.54 117.11 300.875 117.791C301.351 118.352 302.074 118.842 302.839 119.098C307.074 119.801 304.842 122.944 307.52 123.402C307.028 134.358 320.325 140.339 328.03 133.137C331.106 130.128 331.839 125.671 332.553 121.653C332.93 121.568 333.17 121.362 333.31 121.089C334.217 120.183 334.786 119.347 336.58 119.098C338.373 118.849 339.754 119.348 339.941 119.501C339.988 119.596 340.038 119.691 340.097 119.786C340.179 119.928 340.291 120.041 340.417 120.13C338.646 131.041 347.113 137.941 355.661 132.282C359.375 128.787 360.16 123.436 360.315 118.66C360.818 118.356 361.137 117.767 360.963 117.026C360.723 116.006 361.286 115.122 362.183 114.678C363.349 114.101 363.142 111.997 361.804 111.775Z" fill="black"/>
</g>
<defs>
<clipPath id="clip0_852_8769">
<rect width="278" height="301" fill="white" transform="translate(0 7)"/>
</clipPath>
<clipPath id="clip1_852_8769">
<rect width="283" height="307" fill="white" transform="matrix(-1 0 0 1 634 0)"/>
</clipPath>
<clipPath id="clip2_852_8769">
<rect width="240" height="260" fill="white" transform="translate(189 45)"/>
</clipPath>
</defs>
</svg>
